<?xml version="1.0" encoding="utf-8"?>
<!-- Generator: Adobe Illustrator 26.0.2, SVG Export Plug-In . SVG Version: 6.00 Build 0)  -->
<svg version="1.1" id="Layer_1" xmlns="http://www.w3.org/2000/svg" xmlns:xlink="http://www.w3.org/1999/xlink" x="0px" y="0px"
	 viewBox="0 0 100 100" style="enable-background:new 0 0 100 100;" xml:space="preserve">
<style type="text/css">
	.st0{fill:#4DB4D7;}
	.st1{fill:#FFFFFF;}
	.st2{fill:none;stroke:#FFFFFF;stroke-miterlimit:10;}
	.st3{fill:none;stroke:#FFFFFF;stroke-miterlimit:10;stroke-dasharray:2.0062,2.0062;}
</style>
<rect class="st0" width="100" height="100"/>
<path class="st1" d="M81.4,84.3l0.9-0.5L82.8,72c0,0,0-0.4,0.4-1.1c1.1-0.9,2.2-1.9,3-2.7c1.6-1.6,2.6-3,2.3-3.4
	c-0.3-0.4-1.8,0.3-3.7,1.6c-1,0.7-2.1,1.5-3.2,2.5c-0.8,0.2-1.2,0.2-1.2,0.2l-11.7-1.6L68,68.2l9.7,3.8c-2.3,2-4.2,3.7-4.5,4
	c-0.2,0.2-0.9,1-1.6,1.8l-3.3-0.9l-0.5,0.4l2.4,2.2C70,79.8,69.9,80,70,80c0.1,0.1,0.3,0,0.6-0.1l1.7,2.7l0.5-0.4l-0.2-3.4
	c0.9-0.5,1.8-1.1,2.1-1.3c0.3-0.3,2.3-1.8,4.7-3.7L81.4,84.3z"/>
<g>
	<g>
		<path class="st2" d="M14.3,54.9c0-0.3,0.1-0.7,0.1-1"/>
		<path class="st3" d="M14.8,52c2.8-11.7,11.7-12.7,19.2-8.5c6.3,3.5,7,14.6,4.5,21.8C35,75.6,25.5,85.6,18,81.1
			c-3.5-2.1-6-8.2-3.6-12.8c2.7-5.1,10.5-5.4,13.9-2.6c7.2,5.8-1.4,14.3,3.8,20.3c4.1,4.8,13.4,7.2,17.1-0.9
			c3.7-7.9-5.5-10.2-4.5-23.3c0.4-5.4,4.4-12.2,9.6-16.4c7.2-5.8,21.3-3.8,24.1,2.8c1.3,3.1,0.3,7.6-2.4,10.2
			c-4.6,4.2-10.5-0.4-16.4,3.8c-4,2.8-5.7,7.9-5.5,12c0.1,1.2,0.4,8.1,5.3,9.8c2.4,0.9,5.3,0.2,7.7-1.5"/>
		<path class="st2" d="M67.9,81.8c0.3-0.2,0.5-0.4,0.7-0.7"/>
	</g>
</g>
<g>
	<path class="st1" d="M27.2,16h-2.8l-0.5,1.6h-1.7L25,9.8h1.5l2.9,7.8h-1.7L27.2,16z M24.8,14.7h2l-1-2.9L24.8,14.7z"/>
	<path class="st1" d="M31.2,11.8l0,0.7c0.4-0.5,1-0.8,1.7-0.8c0.6,0,1.1,0.2,1.4,0.5s0.5,0.9,0.5,1.6v3.8h-1.6v-3.7
		c0-0.3-0.1-0.6-0.2-0.7C32.9,13,32.6,13,32.3,13c-0.4,0-0.8,0.2-1,0.6v4.1h-1.6v-5.8H31.2z"/>
	<path class="st1" d="M35.7,14.7c0-0.6,0.1-1.1,0.3-1.5s0.5-0.8,1-1c0.4-0.2,0.9-0.4,1.5-0.4c0.8,0,1.4,0.2,1.9,0.7
		c0.5,0.5,0.8,1.1,0.8,2l0,0.4c0,0.9-0.2,1.6-0.7,2.1c-0.5,0.5-1.2,0.8-2,0.8s-1.5-0.3-2-0.8C36,16.4,35.7,15.7,35.7,14.7L35.7,14.7
		z M37.3,14.8c0,0.6,0.1,1,0.3,1.3c0.2,0.3,0.5,0.4,0.9,0.4c0.4,0,0.7-0.1,0.9-0.4s0.3-0.8,0.3-1.4c0-0.5-0.1-1-0.3-1.3
		c-0.2-0.3-0.5-0.4-0.9-0.4c-0.4,0-0.7,0.1-0.9,0.4S37.3,14.2,37.3,14.8z"/>
	<path class="st1" d="M43.6,11.8l0,0.6c0.4-0.5,1-0.8,1.7-0.8c0.7,0,1.3,0.3,1.5,0.9c0.4-0.6,1-0.9,1.7-0.9c0.6,0,1.1,0.2,1.4,0.6
		c0.3,0.4,0.5,0.9,0.5,1.7v3.7h-1.6v-3.7c0-0.3-0.1-0.6-0.2-0.7C48.6,13,48.4,13,48.1,13c-0.5,0-0.8,0.2-1,0.7l0,4h-1.6v-3.7
		c0-0.3-0.1-0.6-0.2-0.7S45,13,44.7,13c-0.4,0-0.8,0.2-1,0.5v4.1h-1.6v-5.8H43.6z"/>
	<path class="st1" d="M55.1,17.6c-0.1-0.1-0.1-0.3-0.2-0.5c-0.4,0.4-0.9,0.6-1.5,0.6c-0.6,0-1-0.2-1.4-0.5s-0.6-0.7-0.6-1.2
		c0-0.6,0.2-1.1,0.7-1.4c0.5-0.3,1.1-0.5,2-0.5h0.7v-0.3c0-0.3-0.1-0.5-0.2-0.6s-0.4-0.2-0.7-0.2c-0.3,0-0.5,0.1-0.6,0.2
		s-0.2,0.3-0.2,0.5h-1.6c0-0.3,0.1-0.6,0.3-0.9c0.2-0.3,0.5-0.5,0.9-0.7c0.4-0.2,0.8-0.2,1.3-0.2c0.7,0,1.3,0.2,1.7,0.5
		c0.4,0.4,0.6,0.9,0.6,1.5v2.5c0,0.6,0.1,1,0.2,1.3v0.1H55.1z M53.8,16.5c0.2,0,0.4-0.1,0.6-0.2c0.2-0.1,0.3-0.2,0.4-0.4v-1h-0.6
		c-0.8,0-1.2,0.3-1.2,0.8l0,0.1c0,0.2,0.1,0.4,0.2,0.5C53.4,16.5,53.5,16.5,53.8,16.5z"/>
	<path class="st1" d="M59.2,17.6h-1.6V9.4h1.6V17.6z"/>
	<path class="st1" d="M60.3,14.7c0-0.6,0.1-1.1,0.3-1.5c0.2-0.5,0.5-0.8,1-1c0.4-0.2,0.9-0.4,1.5-0.4c0.8,0,1.4,0.2,1.9,0.7
		c0.5,0.5,0.8,1.1,0.8,2l0,0.4c0,0.9-0.2,1.6-0.7,2.1c-0.5,0.5-1.2,0.8-2,0.8s-1.5-0.3-2-0.8C60.5,16.4,60.3,15.7,60.3,14.7
		L60.3,14.7z M61.8,14.8c0,0.6,0.1,1,0.3,1.3c0.2,0.3,0.5,0.4,0.9,0.4c0.4,0,0.7-0.1,0.9-0.4c0.2-0.3,0.3-0.8,0.3-1.4
		c0-0.5-0.1-1-0.3-1.3C63.7,13.1,63.4,13,63,13c-0.4,0-0.7,0.1-0.9,0.4C61.9,13.7,61.8,14.2,61.8,14.8z"/>
	<path class="st1" d="M70.2,17c-0.4,0.5-0.9,0.7-1.6,0.7c-0.6,0-1.1-0.2-1.4-0.5c-0.3-0.4-0.5-0.9-0.5-1.6v-3.8h1.6v3.8
		c0,0.6,0.3,0.9,0.8,0.9c0.5,0,0.9-0.2,1.1-0.5v-4.1h1.6v5.8h-1.5L70.2,17z"/>
	<path class="st1" d="M76,16c0-0.2-0.1-0.3-0.3-0.4c-0.2-0.1-0.5-0.2-0.9-0.3c-1.4-0.3-2.1-0.9-2.1-1.8c0-0.5,0.2-0.9,0.6-1.3
		c0.4-0.3,1-0.5,1.7-0.5c0.7,0,1.3,0.2,1.8,0.5s0.7,0.8,0.7,1.4H76c0-0.2-0.1-0.4-0.2-0.6c-0.1-0.1-0.4-0.2-0.7-0.2
		c-0.3,0-0.5,0.1-0.6,0.2s-0.2,0.3-0.2,0.5c0,0.2,0.1,0.3,0.2,0.4c0.2,0.1,0.4,0.2,0.8,0.3c0.4,0.1,0.7,0.2,1,0.3
		c0.8,0.3,1.2,0.8,1.2,1.6c0,0.5-0.2,1-0.7,1.3c-0.5,0.3-1,0.5-1.8,0.5c-0.5,0-0.9-0.1-1.3-0.3c-0.4-0.2-0.7-0.4-0.9-0.7
		c-0.2-0.3-0.3-0.6-0.3-1h1.5c0,0.3,0.1,0.5,0.3,0.6c0.2,0.1,0.4,0.2,0.8,0.2c0.3,0,0.5-0.1,0.7-0.2C76,16.3,76,16.2,76,16z"/>
	<path class="st1" d="M16.3,27.6h-3.1v3.2h-1.6V23h5.1v1.3h-3.5v2h3.1V27.6z"/>
	<path class="st1" d="M19.1,30.8h-1.6v-8.2h1.6V30.8z"/>
	<path class="st1" d="M20.4,23.5c0-0.2,0.1-0.4,0.2-0.6c0.2-0.2,0.4-0.2,0.6-0.2c0.3,0,0.5,0.1,0.6,0.2s0.2,0.3,0.2,0.6
		c0,0.2-0.1,0.4-0.2,0.6c-0.2,0.2-0.4,0.2-0.6,0.2s-0.5-0.1-0.6-0.2C20.5,23.9,20.4,23.7,20.4,23.5z M22,30.8h-1.6V25H22V30.8z"/>
	<path class="st1" d="M23.1,27.9c0-0.9,0.2-1.6,0.6-2.2c0.4-0.5,1-0.8,1.7-0.8c0.6,0,1.1,0.2,1.5,0.7L27,25h1.4v5.6
		c0,0.5-0.1,1-0.3,1.3c-0.2,0.4-0.6,0.7-1,0.9s-0.9,0.3-1.5,0.3c-0.4,0-0.8-0.1-1.2-0.3c-0.4-0.2-0.7-0.4-0.9-0.7l0.7-0.9
		c0.4,0.4,0.9,0.6,1.4,0.6c0.4,0,0.7-0.1,1-0.3c0.2-0.2,0.3-0.5,0.3-0.9v-0.3c-0.4,0.4-0.8,0.6-1.4,0.6c-0.7,0-1.3-0.3-1.7-0.8
		C23.3,29.6,23.1,28.8,23.1,27.9L23.1,27.9z M24.7,28c0,0.5,0.1,0.9,0.3,1.2s0.5,0.4,0.9,0.4c0.5,0,0.8-0.2,1-0.5v-2.4
		c-0.2-0.4-0.5-0.5-1-0.5c-0.4,0-0.7,0.2-0.9,0.5C24.8,26.9,24.7,27.4,24.7,28z"/>
	<path class="st1" d="M31.1,25.6c0.4-0.5,0.9-0.7,1.6-0.7c1.3,0,1.9,0.7,1.9,2.2v3.7H33v-3.7c0-0.3-0.1-0.6-0.2-0.7
		c-0.1-0.2-0.4-0.2-0.7-0.2c-0.5,0-0.8,0.2-1,0.5v4.1h-1.6v-8.2h1.6V25.6z"/>
	<path class="st1" d="M37.6,23.6V25h1v1.1h-1v2.9c0,0.2,0,0.4,0.1,0.5s0.2,0.1,0.5,0.1c0.2,0,0.3,0,0.5,0v1.2
		c-0.3,0.1-0.6,0.1-0.9,0.1c-1.1,0-1.6-0.5-1.7-1.6v-3.1h-0.8V25h0.8v-1.4H37.6z"/>
	<path class="st1" d="M42.3,30.8V23h2.4c0.7,0,1.3,0.2,1.8,0.5c0.5,0.3,1,0.8,1.3,1.3c0.3,0.6,0.5,1.2,0.5,1.9v0.4
		c0,0.7-0.1,1.4-0.4,1.9c-0.3,0.6-0.7,1-1.3,1.3s-1.2,0.5-1.8,0.5H42.3z M43.9,24.3v5.2h0.8c0.6,0,1.1-0.2,1.4-0.6s0.5-1,0.5-1.8
		v-0.4c0-0.8-0.2-1.4-0.5-1.8c-0.3-0.4-0.8-0.6-1.4-0.6H43.9z"/>
	<path class="st1" d="M52,30.9c-0.9,0-1.5-0.3-2.1-0.8c-0.5-0.5-0.8-1.2-0.8-2.1v-0.2c0-0.6,0.1-1.1,0.3-1.6c0.2-0.5,0.5-0.8,1-1.1
		c0.4-0.2,0.9-0.4,1.4-0.4c0.8,0,1.4,0.3,1.9,0.8c0.5,0.5,0.7,1.2,0.7,2.1v0.6h-3.7c0.1,0.4,0.2,0.7,0.5,0.9c0.3,0.2,0.6,0.3,1,0.3
		c0.6,0,1.1-0.2,1.4-0.6l0.8,0.9c-0.2,0.3-0.5,0.6-0.9,0.8C53,30.8,52.5,30.9,52,30.9z M51.9,26.2c-0.3,0-0.6,0.1-0.7,0.3
		s-0.3,0.5-0.4,0.9h2.2v-0.1c0-0.3-0.1-0.6-0.3-0.8C52.4,26.2,52.2,26.2,51.9,26.2z"/>
	<path class="st1" d="M57.2,23.6V25h1v1.1h-1v2.9c0,0.2,0,0.4,0.1,0.5c0.1,0.1,0.2,0.1,0.5,0.1c0.2,0,0.3,0,0.5,0v1.2
		c-0.3,0.1-0.6,0.1-0.9,0.1c-1.1,0-1.6-0.5-1.7-1.6v-3.1h-0.8V25h0.8v-1.4H57.2z"/>
	<path class="st1" d="M61.7,30.9c-0.9,0-1.5-0.3-2.1-0.8s-0.8-1.2-0.8-2.1v-0.2c0-0.6,0.1-1.1,0.3-1.6c0.2-0.5,0.5-0.8,1-1.1
		c0.4-0.2,0.9-0.4,1.4-0.4c0.8,0,1.4,0.3,1.9,0.8c0.5,0.5,0.7,1.2,0.7,2.1v0.6h-3.7c0.1,0.4,0.2,0.7,0.5,0.9c0.3,0.2,0.6,0.3,1,0.3
		c0.6,0,1.1-0.2,1.4-0.6l0.8,0.9c-0.2,0.3-0.5,0.6-0.9,0.8C62.6,30.8,62.2,30.9,61.7,30.9z M61.5,26.2c-0.3,0-0.6,0.1-0.7,0.3
		c-0.2,0.2-0.3,0.5-0.4,0.9h2.2v-0.1c0-0.3-0.1-0.6-0.3-0.8C62.1,26.2,61.9,26.2,61.5,26.2z"/>
	<path class="st1" d="M67.4,29.7c0.3,0,0.5-0.1,0.7-0.2c0.2-0.2,0.3-0.4,0.3-0.6h1.5c0,0.4-0.1,0.8-0.3,1.1
		c-0.2,0.3-0.5,0.6-0.9,0.8c-0.4,0.2-0.8,0.3-1.2,0.3c-0.8,0-1.5-0.3-2-0.8c-0.5-0.5-0.7-1.3-0.7-2.2v-0.1c0-0.9,0.2-1.6,0.7-2.1
		c0.5-0.5,1.1-0.8,2-0.8c0.7,0,1.3,0.2,1.7,0.6c0.4,0.4,0.7,1,0.7,1.7h-1.5c0-0.3-0.1-0.5-0.3-0.7c-0.2-0.2-0.4-0.3-0.7-0.3
		c-0.4,0-0.6,0.1-0.8,0.4s-0.3,0.7-0.3,1.3V28c0,0.6,0.1,1,0.3,1.3S67,29.7,67.4,29.7z"/>
	<path class="st1" d="M72.6,23.6V25h1v1.1h-1v2.9c0,0.2,0,0.4,0.1,0.5s0.2,0.1,0.5,0.1c0.2,0,0.3,0,0.5,0v1.2
		c-0.3,0.1-0.6,0.1-0.9,0.1c-1.1,0-1.6-0.5-1.7-1.6v-3.1h-0.8V25H71v-1.4H72.6z"/>
	<path class="st1" d="M74.4,23.5c0-0.2,0.1-0.4,0.2-0.6c0.2-0.2,0.4-0.2,0.6-0.2c0.3,0,0.5,0.1,0.6,0.2c0.2,0.2,0.2,0.3,0.2,0.6
		c0,0.2-0.1,0.4-0.2,0.6s-0.4,0.2-0.6,0.2c-0.3,0-0.5-0.1-0.6-0.2S74.4,23.7,74.4,23.5z M76.1,30.8h-1.6V25h1.6V30.8z"/>
	<path class="st1" d="M77.1,27.9c0-0.6,0.1-1.1,0.3-1.5s0.5-0.8,1-1s0.9-0.4,1.5-0.4c0.8,0,1.4,0.2,1.9,0.7s0.8,1.1,0.8,2l0,0.4
		c0,0.9-0.2,1.6-0.7,2.1c-0.5,0.5-1.2,0.8-2,0.8s-1.5-0.3-2-0.8C77.4,29.6,77.1,28.9,77.1,27.9L77.1,27.9z M78.7,28
		c0,0.6,0.1,1,0.3,1.3c0.2,0.3,0.5,0.4,0.9,0.4c0.4,0,0.7-0.1,0.9-0.4c0.2-0.3,0.3-0.8,0.3-1.4c0-0.5-0.1-1-0.3-1.3
		c-0.2-0.3-0.5-0.4-0.9-0.4c-0.4,0-0.7,0.1-0.9,0.4C78.8,26.9,78.7,27.4,78.7,28z"/>
	<path class="st1" d="M85,25l0,0.7c0.4-0.5,1-0.8,1.7-0.8c0.6,0,1.1,0.2,1.4,0.5s0.5,0.9,0.5,1.6v3.8H87v-3.7c0-0.3-0.1-0.6-0.2-0.7
		c-0.1-0.1-0.4-0.2-0.7-0.2c-0.4,0-0.8,0.2-1,0.6v4.1h-1.6V25H85z"/>
</g>
</svg>
