<svg xmlns="http://www.w3.org/2000/svg" viewBox="0 0 100 100">
  <defs>
    <style>
      .cls-1 {
        fill: #4db4d7;
      }

      .cls-2, .cls-3 {
        fill: #fff;
      }

      .cls-3 {
        font-size: 10px;
        font-family: Roboto-BoldCondensed, Roboto;
        font-weight: 700;
      }

      .cls-4 {
        letter-spacing: -0.01em;
      }

      .cls-5 {
        letter-spacing: -0.01em;
      }
    </style>
  </defs>
  <title>ifc</title>
  <g id="Layer_2" data-name="Layer 2">
    <g id="Layer_1-2" data-name="Layer 1">
      <rect class="cls-1" width="100" height="100"/>
      <path class="cls-2" d="M48.08,21h4a1.91,1.91,0,0,0,.29.08,22,22,0,0,1,7.23,2A22.42,22.42,0,0,1,72.41,46.14a21.07,21.07,0,0,1-4.26,10.79A22.53,22.53,0,0,1,62.92,62a22.2,22.2,0,0,1-9.4,3.78L52.07,66h-4a2.32,2.32,0,0,0-.33-.08,20.79,20.79,0,0,1-5.8-1.36,22.39,22.39,0,0,1-9-6.38A21.55,21.55,0,0,1,28.77,51a19.35,19.35,0,0,1-1.06-4.06,22.85,22.85,0,0,1-.09-6c0-.14.17-1.14.19-1.28a22.32,22.32,0,0,1,2.48-7.08,23,23,0,0,1,5-6.17,22.4,22.4,0,0,1,5.45-3.49,22.13,22.13,0,0,1,5.85-1.7ZM46.18,58a2.18,2.18,0,0,1-.37-1.75A1.23,1.23,0,0,0,46.18,58a2.78,2.78,0,0,0,.81.41,2,2,0,0,0,2-1,2.7,2.7,0,0,0-.28-2.55,2.93,2.93,0,0,0-4.62.24,3.78,3.78,0,0,0,.33,4.75,4.69,4.69,0,0,0,7.18-.61,6.15,6.15,0,0,0-.76-7.88,6.52,6.52,0,0,0-3-1.7,2.54,2.54,0,0,0-1.5.09,8.65,8.65,0,0,0,1.31.52,6.74,6.74,0,0,1,3,1.9,5.64,5.64,0,0,1,1.17,4.2,4.13,4.13,0,0,1-2.64,3.83,3.73,3.73,0,0,1-5-1.9,2.77,2.77,0,0,1,2.38-3.93,2.14,2.14,0,0,1,2.16,2.88,1.44,1.44,0,0,1-.38.51A2,2,0,0,1,46.18,58Zm21.2-24.55.11.06-.33-.09A18.52,18.52,0,0,0,62.48,33a20.16,20.16,0,0,0-6,1.22,8.74,8.74,0,0,0-4.36,3.13,15.26,15.26,0,0,0-2.2,4.73c0,.13-.08.26-.12.39a3,3,0,0,1,0-.83c0-.86.14-1.73.11-2.59,0-1.14-.12-2.28-.25-3.41a15.11,15.11,0,0,0-1.87-6c-.62-1.06-1.22-2.13-1.78-3.22-.4-.77-.72-1.59-1.09-2.41-.06.14-.13.26-.18.4-.48,1.35-1,2.67-1.41,4a19.79,19.79,0,0,0-.74,3.9,11.58,11.58,0,0,0,2,6.63c.23.4.51.78.77,1.17a19.27,19.27,0,0,0-10.94-5.12c.06.25.1.48.16.7A16.26,16.26,0,0,0,38,42.28a17,17,0,0,0,6.59,4.49,11.2,11.2,0,0,0,4.51.68,2.3,2.3,0,0,1,1,.28c.91.44,1.78,1,2.7,1.36a6.29,6.29,0,0,0,3.21.56,5.09,5.09,0,0,0,3.7-2.24,32.2,32.2,0,0,0,4.1-7.79,15.35,15.35,0,0,1,2.37-4.73Z"/>
      <text class="cls-3" transform="translate(15.98 79.33)">Ithaca <tspan class="cls-4" x="26.7" y="0">F</tspan><tspan class="cls-5" x="31.43" y="0">r</tspan><tspan x="34.45" y="0">ee Clinic</tspan></text>
    </g>
  </g>
</svg>
