<svg xmlns="http://www.w3.org/2000/svg" viewBox="0 0 100 100">
  <defs>
    <style>
      .cls-1 {
        fill: #48bf91;
      }

      .cls-2, .cls-3 {
        fill: #fff;
      }

      .cls-3 {
        font-size: 9px;
        font-family: Roboto-BoldCondensed, Roboto;
        font-weight: 700;
      }

      .cls-4 {
        letter-spacing: -0.01em;
      }
    </style>
  </defs>
  <title>maculogix</title>
  <g id="Layer_2" data-name="Layer 2">
    <g id="Layer_1-2" data-name="Layer 1">
      <rect class="cls-1" width="100" height="100"/>
      <g>
        <path class="cls-2" d="M37.09,54.16c.11-1.08.16-2.17.33-3.25a13.69,13.69,0,0,1,2.31-6.11,5.39,5.39,0,0,1,3.41-2.2c2.27-.46,4.51-1,6.78-1.5,3.15-.68,6.31-1.35,9.47-2l6.49-1.37,10.9-2.28A3,3,0,0,1,80,37a8.37,8.37,0,0,1,1,3.8,20.09,20.09,0,0,1-1.83,9.29,10.43,10.43,0,0,1-2.47,3.52,5.42,5.42,0,0,1-1.87,1.09c-2.91,1-5.81,2.06-8.73,3-4,1.32-8,2.62-12.06,3.86-2.35.72-4.74,1.32-7.11,1.95a27.11,27.11,0,0,1-2.76.61,4.83,4.83,0,0,1-4.88-2,9.72,9.72,0,0,1-1.57-3.46,17.24,17.24,0,0,1-.55-4.28c0-.07,0-.15,0-.22Zm42.2-14.43a2.74,2.74,0,0,0-3.27-2l-8,1.74-9.07,2c-2.67.58-5.35,1.14-8,1.74-1.9.42-3.79.93-5.7,1.31a5.24,5.24,0,0,0-3.69,2.88,13.17,13.17,0,0,0-1.37,4c0,.22-.09.45-.12.67s0,.43-.06.65a12.06,12.06,0,0,1,1.87-4A5.32,5.32,0,0,1,45,46.51c2.09-.44,4.17-.91,6.26-1.38l6.77-1.54L69.9,40.94c2.07-.47,4.15-1,6.22-1.4a3.94,3.94,0,0,1,2-.21C78.51,39.44,78.89,39.59,79.28,39.73Z"/>
        <path class="cls-2" d="M36.54,60l-2.8-2.66c-1.46-1.39-2.91-2.79-4.39-4.16a10.4,10.4,0,0,1-2.86-4.84A12.88,12.88,0,0,1,26,43.68a9,9,0,0,1,1.62-4.77,6.38,6.38,0,0,1,6-2.55,102.46,102.46,0,0,0,12.05.17,59,59,0,0,0,7.7-.88A37.69,37.69,0,0,0,59,34.16a23.44,23.44,0,0,0,5.23-2.52c.46-.3.92-.6,1.35-.94a1.47,1.47,0,0,1,1.49-.24c.8.28,1.58.62,2.37.95L75.49,34c.05,0,.1,0,.13,0l-3,.6-7.37,1.54L56.32,38,45.1,40.42c-1.34.29-2.68.58-4,.89A5,5,0,0,0,38.45,43a12.31,12.31,0,0,0-2.35,4.6,20.35,20.35,0,0,0-.76,7.89A13.17,13.17,0,0,0,36.54,60Zm1.05-18-.26-.16c-2.21-1.22-4.42-2.43-6.61-3.66a.66.66,0,0,0-.83.13,6.87,6.87,0,0,0-2.41,4.16A.85.85,0,0,0,28,43.61a1.12,1.12,0,0,1,.17.14l4.65,3.4,1.81,1.32A12.08,12.08,0,0,1,37.59,42Z"/>
        <path class="cls-2" d="M22.06,34.21a3.58,3.58,0,0,1-1-2.17,5.64,5.64,0,0,1,.26-2.28,1.07,1.07,0,0,1,.33-.43,9.26,9.26,0,0,1,4.68-2.17l5.52-1c3.51-.61,7-1.22,10.54-1.85a27.56,27.56,0,0,1,4.85-.56,22.28,22.28,0,0,1,5.72.77,43.8,43.8,0,0,1,7.28,2.81c1.42.66,2.83,1.34,4.25,2l.41.21a9.26,9.26,0,0,1-.93.71c-1,.61-2.1,1.21-3.17,1.78-.65.34-1.34.61-2,.9a.47.47,0,0,1-.36,0c-1.37-.8-2.71-1.66-4.11-2.41A16.52,16.52,0,0,0,45.8,28.4a25,25,0,0,0-4.13.57L30.75,31.15c-1.54.31-3.07.61-4.6.94A8,8,0,0,0,22.06,34.21Z"/>
        <path class="cls-2" d="M20.31,30.83a4.81,4.81,0,0,0,2.11,5.25,29.43,29.43,0,0,0,3.93,2.34l.24.14a10.11,10.11,0,0,0-1.53,4.17,14.53,14.53,0,0,0,.07,4.46l-.33-.32c-1.39-1.51-2.8-3-4.16-4.55A6,6,0,0,1,19,38.79a15.9,15.9,0,0,1,0-2.24c.07-1.21.17-2.42.32-3.63A3.82,3.82,0,0,1,20.31,30.83Z"/>
      </g>
      <text class="cls-3" transform="translate(8.63 76.92)">Maculogix AdaptDx P<tspan class="cls-4" x="75.61" y="0">r</tspan><tspan x="78.32" y="0">o</tspan></text>
    </g>
  </g>
</svg>
