<?xml version="1.0" encoding="utf-8"?>
<!-- Generator: Adobe Illustrator 26.0.2, SVG Export Plug-In . SVG Version: 6.00 Build 0)  -->
<svg version="1.1" id="Layer_1" xmlns="http://www.w3.org/2000/svg" xmlns:xlink="http://www.w3.org/1999/xlink" x="0px" y="0px"
	 viewBox="0 0 100 100" style="enable-background:new 0 0 100 100;" xml:space="preserve">
<style type="text/css">
	.st0{fill:#4DB4D7;}
	.st1{fill:#FFFFFF;}
	.st2{fill:none;stroke:#FFFFFF;stroke-miterlimit:10;}
	.st3{fill:#682F1F;}
	.st4{fill:none;stroke:#FFFFFF;stroke-miterlimit:10;stroke-dasharray:1.7931,1.7931;}
	.st5{enable-background:new    ;}
</style>
<rect class="st0" width="100" height="100"/>
<rect x="10.8" y="67.3" class="st1" width="79.2" height="2.8"/>
<path class="st1" d="M29.2,25.1c2.1-1.2,2-2.4,2.2-4.4c0.1-1.1-0.2-2.2-0.9-3.2l-1.7-1.2v-0.7c0.5,0.2,3.4,1.6,3.8,2l13.9,12.1
	c0.4,0.3,0.7,0.7,1,1.2c1.3,1.9,1.2,4.2-0.1,5.8c-0.8,0.9-2,1.5-3.3,1.5s-2.6-0.5-3.7-1.4L28.7,25.9 M32.3,18.8
	c0.2,0.7,0.3,1.4,0.2,2.1c-0.1,1.7-1,3.1-2.3,3.9c-0.5,0.3-0.6,1-0.1,1.4l11.1,9.7C42,36.6,43,37,44,37s1.9-0.4,2.5-1.1
	c1-1.2,1.1-3,0.1-4.4c-0.2-0.3-0.5-0.6-0.8-0.9L32.3,18.8z"/>
<g>
	<path class="st1" d="M48.8,33.7L56,34l0.7,1.4L56.3,35l-0.5-0.6l-0.7,0.3l-3,1.2L51.8,36l-0.2,0.3L50,39.1v0.4v0.3l0.2,3.7v0.8
		l0.7,0.1l-0.6,0.1L45.7,38l0.6-0.4c1.2-0.8,2.1-2,2.4-3.5L48.8,33.7 M48,32.7L47.7,34c-0.3,1.2-1,2.2-2,2.8l-1.5,0.9l5.6,7.7
		l10.9-1l-9.5-1.1L51,39.7l1.6-2.8l3-1.2l6,7.3l-5-9.9L48,32.7L48,32.7z"/>
</g>
<path class="st1" d="M10.6,34.8c0-0.1,0.1-0.1,0.1-0.2l11.4-16.5c0.8-1.1,2.1-1.8,3.5-2c1.1-0.1,2.3,0.1,3.3,0.7
	c1.1,0.6,1.9,1.6,2.2,2.8c0.3,1.1,0.1,2.3-0.6,3.3L20.3,38l0.7,1l10.6-15.5c0.9-1.2,1.1-2.7,0.7-4.1c-0.4-1.4-1.4-2.6-2.8-3.4
	c-1.2-0.7-2.7-1-4.1-0.8c-1.8,0.2-3.4,1.1-4.4,2.5L9.5,34.3c-0.9,1.2-1.1,2.7-0.7,4.1"/>
<path class="st1" d="M20,55.4c-0.3,0.6,0.2,0-0.3,1.4L9,41.4c-1.7-2.6-0.6-6,2.3-7.6c1.5-0.8,3.3-1.1,4.9-0.7
	c1.5,0.4,2.7,1.2,3.4,2.3l11.5,17c-3.5-1.8-5.9-2.4-8.9-0.7C20.8,52.5,20.7,53.4,20,55.4z M19.4,54.4c0.4-1.4,1.3-2.7,2.5-3.4
	c2.4-1.3,7.1-1.3,7.1,0L18.6,36c-0.6-0.9-1.6-1.6-2.8-1.9c-1.3-0.3-2.8-0.1-4,0.5C9.5,36,8.7,38.7,10,40.8"/>
<g>
	<path class="st2" d="M31.7,54.7c-0.3-2.3-2.8-4-5.9-4s-5.6,1.8-5.9,4l0,0v12.6h11.8V54.7L31.7,54.7z"/>
</g>
<g>
	<g>
		<path class="st1" d="M88.4,60.1l-0.2,0.3c-0.1,0.1-0.2,0.2-0.4,0.2c-0.3,0.5-1,1.8-1.2,2c-0.3,0.3-0.9,0.4-1.5,0.1
			c-0.4-0.2-5.1-3-7.6-4.5s-7.2-4.2-7.6-4.5c-0.5-0.3-0.7-1-0.6-1.4c0.1-0.2,0.9-1.5,1.2-2c-0.1-0.1-0.1-0.3,0-0.4l0.2-0.3
			L88.4,60.1z"/>
	</g>
	<g>
		<g>
			<path class="st3" d="M78.9,58.9c1.2,0.7,2.8,1.7,4.3,2.6c-1.5-0.9-3.5-2-5-2.9C78.5,58.7,78.7,58.8,78.9,58.9z"/>
		</g>
	</g>
	<g>
		<rect x="69.1" y="51" transform="matrix(0.5073 -0.8618 0.8618 0.5073 -9.6608 85.4964)" class="st1" width="1.7" height="0.3"/>
	</g>
	<g>
		<path class="st1" d="M70.3,50.7c0,0-0.6-0.7-1.1-1.3s-1.1-1.1-1.1-1.1l-0.2,0.3c0,0,0.6,0.4,1,1.1c0.6,0.8,0.7,1.9,0.7,1.9
			L70.3,50.7z"/>
	</g>
	<g>
		<path class="st1" d="M69,49l-0.3,0.4c-0.1,0.1-0.3,0.2-0.4,0.1c-0.6-0.5-2.1-1.8-4.7-3.4c-3.4-2-5.1-2.1-5.4-2.9
			c-0.3-0.8,0-1.7,1-1.5c1.8,0.3,8.5,5.9,9.8,7C69,48.7,69.1,48.9,69,49z"/>
	</g>
</g>
<path class="st1" d="M85.7,29l-8.9,11.3c-0.3,0.4-0.2,0.9,0.1,1.2l0,0c0.4,0.3,0.9,0.2,1.2-0.1L87,30.1c0.3-0.4,0.2-0.9-0.1-1.2
	C86.5,28.6,86,28.7,85.7,29z"/>
<g>
	<g>
		<path class="st2" d="M84.3,37.9c0.2,0.3,0.4,0.5,0.6,0.8"/>
		<path class="st4" d="M86,40.2c1,1.7,1.7,3.5,2.1,6.1c0.3,2.7-0.1,5.2-0.6,6.9"/>
		<path class="st2" d="M87.2,54c-0.1,0.4-0.2,0.7-0.3,1"/>
	</g>
</g>
<g>
	<path class="st1" d="M26.6,54.8c-0.6-0.5-1.4-0.4-1.8,0.2c-0.5,0.6-0.4,1.4,0.2,1.8c0.6,0.5,1.4,0.4,1.8-0.2
		C27.2,56.1,27.2,55.3,26.6,54.8z"/>
	<path class="st1" d="M28.5,54c-1.5-2.2-4.7-1.8-5.8,0.7c-0.4,0.9-0.3,2.1,0.3,2.9c1.3,2,3.9,2,5.3,0.3c0.1-0.1,0.2-0.2,0.3-0.3
		C29.3,56.5,29.2,55,28.5,54z M28,56.9c-0.8,1.7-3.1,1.9-4.2,0.4c-0.5-0.7-0.6-1.7-0.2-2.5c0.8-1.7,3.1-1.9,4.2-0.4
		C28.3,55.1,28.4,56.1,28,56.9z"/>
</g>
<g class="st5">
	<path class="st1" d="M9.9,82.4v2.8H8.3v-7.8h3.1c0.6,0,1.1,0.1,1.5,0.3c0.4,0.2,0.8,0.5,1,0.9s0.4,0.8,0.4,1.4
		c0,0.8-0.3,1.4-0.8,1.8c-0.5,0.4-1.3,0.7-2.2,0.7H9.9z M9.9,81.1h1.4c0.4,0,0.8-0.1,1-0.3c0.2-0.2,0.3-0.5,0.3-0.9
		c0-0.4-0.1-0.7-0.3-0.9s-0.5-0.4-0.9-0.4H9.9V81.1z"/>
	<path class="st1" d="M18.6,85.1c-0.1-0.1-0.1-0.3-0.2-0.5c-0.4,0.4-0.9,0.6-1.5,0.6c-0.6,0-1-0.2-1.4-0.5C15.1,84.4,15,84,15,83.5
		c0-0.6,0.2-1.1,0.7-1.4c0.5-0.3,1.1-0.5,2-0.5h0.7v-0.3c0-0.3-0.1-0.5-0.2-0.6c-0.1-0.2-0.4-0.2-0.7-0.2c-0.3,0-0.5,0.1-0.6,0.2
		c-0.1,0.1-0.2,0.3-0.2,0.5h-1.6c0-0.3,0.1-0.6,0.3-0.9c0.2-0.3,0.5-0.5,0.9-0.7s0.8-0.2,1.3-0.2c0.7,0,1.3,0.2,1.7,0.5
		c0.4,0.4,0.6,0.9,0.6,1.5v2.5c0,0.6,0.1,1,0.2,1.3v0.1H18.6z M17.3,84c0.2,0,0.4-0.1,0.6-0.2c0.2-0.1,0.3-0.2,0.4-0.4v-1h-0.6
		c-0.8,0-1.2,0.3-1.2,0.8l0,0.1c0,0.2,0.1,0.4,0.2,0.5S17,84,17.3,84z"/>
	<path class="st1" d="M22.5,79.3l0,0.7c0.4-0.5,1-0.8,1.7-0.8c0.6,0,1.1,0.2,1.4,0.5c0.3,0.4,0.5,0.9,0.5,1.6v3.8h-1.6v-3.7
		c0-0.3-0.1-0.6-0.2-0.7s-0.4-0.2-0.7-0.2c-0.4,0-0.8,0.2-1,0.6v4.1h-1.6v-5.8H22.5z"/>
	<path class="st1" d="M29.7,84c0.3,0,0.5-0.1,0.7-0.2c0.2-0.2,0.3-0.4,0.3-0.6h1.5c0,0.4-0.1,0.8-0.3,1.1c-0.2,0.3-0.5,0.6-0.9,0.8
		c-0.4,0.2-0.8,0.3-1.2,0.3c-0.8,0-1.5-0.3-2-0.8S27,83.2,27,82.2v-0.1c0-0.9,0.2-1.6,0.7-2.1c0.5-0.5,1.1-0.8,2-0.8
		c0.7,0,1.3,0.2,1.7,0.6c0.4,0.4,0.7,1,0.7,1.7h-1.5c0-0.3-0.1-0.5-0.3-0.7c-0.2-0.2-0.4-0.3-0.7-0.3c-0.4,0-0.6,0.1-0.8,0.4
		c-0.2,0.3-0.3,0.7-0.3,1.3v0.2c0,0.6,0.1,1,0.3,1.3C29,83.8,29.3,84,29.7,84z"/>
	<path class="st1" d="M36.3,85.1c-0.1-0.1-0.1-0.3-0.2-0.5c-0.4,0.4-0.9,0.6-1.5,0.6c-0.6,0-1-0.2-1.4-0.5c-0.4-0.3-0.6-0.7-0.6-1.2
		c0-0.6,0.2-1.1,0.7-1.4c0.5-0.3,1.1-0.5,2-0.5h0.7v-0.3c0-0.3-0.1-0.5-0.2-0.6c-0.1-0.2-0.4-0.2-0.7-0.2c-0.3,0-0.5,0.1-0.6,0.2
		c-0.1,0.1-0.2,0.3-0.2,0.5h-1.6c0-0.3,0.1-0.6,0.3-0.9c0.2-0.3,0.5-0.5,0.9-0.7s0.8-0.2,1.3-0.2c0.7,0,1.3,0.2,1.7,0.5
		c0.4,0.4,0.6,0.9,0.6,1.5v2.5c0,0.6,0.1,1,0.2,1.3v0.1H36.3z M35.1,84c0.2,0,0.4-0.1,0.6-0.2c0.2-0.1,0.3-0.2,0.4-0.4v-1h-0.6
		c-0.8,0-1.2,0.3-1.2,0.8l0,0.1c0,0.2,0.1,0.4,0.2,0.5S34.8,84,35.1,84z"/>
	<path class="st1" d="M41,82.8l-0.6,0.6v1.8h-1.6v-8.2h1.6v4.6l0.3-0.4l1.5-1.7h1.9L42,81.7l2.3,3.4h-1.8L41,82.8z"/>
	<path class="st1" d="M47.4,85.2c-0.9,0-1.5-0.3-2.1-0.8c-0.5-0.5-0.8-1.2-0.8-2.1v-0.2c0-0.6,0.1-1.1,0.3-1.6s0.5-0.8,1-1.1
		c0.4-0.2,0.9-0.4,1.4-0.4c0.8,0,1.4,0.3,1.9,0.8c0.5,0.5,0.7,1.2,0.7,2.1v0.6h-3.7c0.1,0.4,0.2,0.7,0.5,0.9c0.3,0.2,0.6,0.3,1,0.3
		c0.6,0,1.1-0.2,1.4-0.6l0.8,0.9c-0.2,0.3-0.5,0.6-0.9,0.8S47.9,85.2,47.4,85.2z M47.3,80.4c-0.3,0-0.6,0.1-0.7,0.3
		c-0.2,0.2-0.3,0.5-0.4,0.9h2.2v-0.1c0-0.3-0.1-0.6-0.3-0.8C47.8,80.5,47.6,80.4,47.3,80.4z"/>
	<path class="st1" d="M58.2,81.9h-3.1v3.2h-1.6v-7.8h5.1v1.3h-3.5v2h3.1V81.9z"/>
	<path class="st1" d="M61.1,85.1h-1.6v-8.2h1.6V85.1z"/>
	<path class="st1" d="M62.4,77.8c0-0.2,0.1-0.4,0.2-0.6c0.2-0.2,0.4-0.2,0.6-0.2c0.3,0,0.5,0.1,0.6,0.2c0.2,0.2,0.2,0.3,0.2,0.6
		c0,0.2-0.1,0.4-0.2,0.6c-0.2,0.2-0.4,0.2-0.6,0.2c-0.3,0-0.5-0.1-0.6-0.2S62.4,78,62.4,77.8z M64,85.1h-1.6v-5.8H64V85.1z"/>
	<path class="st1" d="M70.5,82.3c0,0.9-0.2,1.6-0.6,2.2c-0.4,0.5-1,0.8-1.6,0.8c-0.6,0-1.1-0.2-1.4-0.6v2.7h-1.6v-8h1.4l0.1,0.6
		c0.4-0.5,0.9-0.7,1.5-0.7c0.7,0,1.3,0.3,1.7,0.8S70.5,81.3,70.5,82.3L70.5,82.3z M69,82.2c0-0.5-0.1-1-0.3-1.3
		c-0.2-0.3-0.5-0.4-0.8-0.4c-0.5,0-0.8,0.2-1,0.6v2.4c0.2,0.4,0.5,0.6,1,0.6C68.6,84,69,83.4,69,82.2z"/>
	<path class="st1" d="M76.7,82.3c0,0.9-0.2,1.6-0.6,2.2s-1,0.8-1.6,0.8c-0.6,0-1.1-0.2-1.4-0.6v2.7h-1.6v-8h1.4l0.1,0.6
		c0.4-0.5,0.9-0.7,1.5-0.7c0.7,0,1.3,0.3,1.7,0.8S76.7,81.3,76.7,82.3L76.7,82.3z M75.2,82.2c0-0.5-0.1-1-0.3-1.3
		c-0.2-0.3-0.5-0.4-0.8-0.4c-0.5,0-0.8,0.2-1,0.6v2.4c0.2,0.4,0.5,0.6,1,0.6C74.8,84,75.2,83.4,75.2,82.2z"/>
	<path class="st1" d="M77.7,77.8c0-0.2,0.1-0.4,0.2-0.6c0.2-0.2,0.4-0.2,0.6-0.2c0.3,0,0.5,0.1,0.6,0.2c0.2,0.2,0.2,0.3,0.2,0.6
		c0,0.2-0.1,0.4-0.2,0.6s-0.4,0.2-0.6,0.2c-0.3,0-0.5-0.1-0.6-0.2C77.8,78.2,77.7,78,77.7,77.8z M79.3,85.1h-1.6v-5.8h1.6V85.1z"/>
	<path class="st1" d="M82,79.3l0,0.7c0.4-0.5,1-0.8,1.7-0.8c0.6,0,1.1,0.2,1.4,0.5c0.3,0.4,0.5,0.9,0.5,1.6v3.8H84v-3.7
		c0-0.3-0.1-0.6-0.2-0.7c-0.1-0.1-0.4-0.2-0.7-0.2c-0.4,0-0.8,0.2-1,0.6v4.1h-1.6v-5.8H82z"/>
	<path class="st1" d="M86.5,82.2c0-0.9,0.2-1.6,0.6-2.2c0.4-0.5,1-0.8,1.7-0.8c0.6,0,1.1,0.2,1.5,0.7l0.1-0.5h1.4v5.6
		c0,0.5-0.1,1-0.3,1.3c-0.2,0.4-0.6,0.7-1,0.9c-0.4,0.2-0.9,0.3-1.5,0.3c-0.4,0-0.8-0.1-1.2-0.3c-0.4-0.2-0.7-0.4-0.9-0.7l0.7-0.9
		c0.4,0.4,0.9,0.7,1.4,0.7c0.4,0,0.7-0.1,1-0.3c0.2-0.2,0.3-0.5,0.3-0.9v-0.3c-0.4,0.4-0.8,0.6-1.4,0.6c-0.7,0-1.3-0.3-1.7-0.8
		C86.8,83.9,86.5,83.1,86.5,82.2L86.5,82.2z M88.1,82.3c0,0.5,0.1,0.9,0.3,1.2c0.2,0.3,0.5,0.4,0.9,0.4c0.5,0,0.8-0.2,1-0.5V81
		c-0.2-0.4-0.5-0.5-1-0.5c-0.4,0-0.7,0.2-0.9,0.5C88.2,81.2,88.1,81.7,88.1,82.3z"/>
</g>
<g>
	<path class="st1" d="M15.4,37.9c-0.6-0.5-1.4-0.4-1.8,0.2c-0.5,0.6-0.4,1.4,0.2,1.8c0.6,0.5,1.4,0.4,1.8-0.2S16,38.3,15.4,37.9z"/>
	<path class="st1" d="M17.3,37c-1.5-2.2-4.7-1.8-5.8,0.7c-0.4,0.9-0.3,2.1,0.3,2.9c1.3,2,3.9,2,5.3,0.3c0.1-0.1,0.2-0.2,0.3-0.3
		C18,39.5,18,38.1,17.3,37z M16.8,39.9c-0.8,1.7-3.1,1.9-4.2,0.4c-0.5-0.7-0.6-1.7-0.2-2.5c0.8-1.7,3.1-1.9,4.2-0.4
		C17.1,38.1,17.2,39.1,16.8,39.9z"/>
</g>
<g>
	<path class="st1" d="M27.3,19.9c-0.6-0.5-1.4-0.4-1.8,0.2c-0.5,0.6-0.4,1.4,0.2,1.8c0.6,0.5,1.4,0.4,1.8-0.2
		C27.9,21.2,27.8,20.4,27.3,19.9z"/>
	<path class="st1" d="M29.1,19.1c-1.5-2.2-4.7-1.8-5.8,0.7c-0.4,0.9-0.3,2.1,0.3,2.9c1.3,2,3.9,2,5.3,0.3c0.1-0.1,0.2-0.2,0.3-0.3
		C29.9,21.6,29.9,20.1,29.1,19.1z M28.7,22c-0.8,1.7-3.1,1.9-4.2,0.4c-0.5-0.7-0.6-1.7-0.2-2.5c0.8-1.7,3.1-1.9,4.2-0.4
		C29,20.2,29.1,21.2,28.7,22z"/>
</g>
<g>
	<path class="st1" d="M44.1,32.6c-0.4-0.3-1-0.3-1.4,0.1c-0.3,0.4-0.3,1,0.1,1.4c0.4,0.3,1,0.3,1.4-0.1C44.5,33.6,44.5,33,44.1,32.6
		z"/>
	<path class="st1" d="M45.5,32c-1.2-1.6-3.6-1.4-4.4,0.5c-0.3,0.7-0.2,1.6,0.2,2.2c1,1.5,3,1.5,4,0.3c0.1-0.1,0.1-0.2,0.2-0.3
		C46.1,33.9,46.1,32.8,45.5,32z M45.1,34.2c-0.6,1.3-2.3,1.5-3.2,0.3c-0.4-0.5-0.5-1.3-0.2-1.9c0.6-1.3,2.4-1.5,3.2-0.3
		C45.3,32.8,45.4,33.6,45.1,34.2z"/>
</g>
</svg>
