<svg xmlns="http://www.w3.org/2000/svg" viewBox="0 0 100 100">
  <defs>
    <style>
      .cls-1 {
        fill: #48bf91;
      }

      .cls-2 {
        font-size: 15px;
        font-family: GreatVibes-Regular, Great Vibes;
      }

      .cls-2, .cls-3 {
        fill: #fff;
      }
    </style>
  </defs>
  <title>website_2</title>
  <g id="Layer_2" data-name="Layer 2">
    <g id="Layer_1-2" data-name="Layer 1">
      <rect class="cls-1" width="100" height="100"/>
      <text class="cls-2" transform="translate(11.89 49.76)">Daniet Stabile</text>
      <g>
        <path class="cls-3" d="M14.41,61.24v2.32H13.17v-6.4h2.14a2.06,2.06,0,0,1,1.53.56,2.23,2.23,0,0,1,0,3,2.07,2.07,0,0,1-1.53.56Zm0-1h.9a.74.74,0,0,0,.64-.3,1.26,1.26,0,0,0,.22-.76,1.31,1.31,0,0,0-.22-.78.73.73,0,0,0-.64-.31h-.9Z"/>
        <path class="cls-3" d="M20.33,59.87h-.42a.54.54,0,0,0-.34.11.69.69,0,0,0-.21.31v3.28H18.11V58.8h1.16l0,.67a1.46,1.46,0,0,1,.35-.56.69.69,0,0,1,.49-.2l.15,0,.14,0Z"/>
        <path class="cls-3" d="M20.67,61.13a2.81,2.81,0,0,1,.51-1.75,1.87,1.87,0,0,1,2.88,0,2.78,2.78,0,0,1,.52,1.75v.1A2.78,2.78,0,0,1,24.07,63a1.89,1.89,0,0,1-2.88,0,2.78,2.78,0,0,1-.51-1.74Zm1.23.1a2.76,2.76,0,0,0,.17,1.05.57.57,0,0,0,.56.39.56.56,0,0,0,.54-.39,2.74,2.74,0,0,0,.17-1.05v-.1a2.76,2.76,0,0,0-.17-1.05.58.58,0,0,0-1.11,0,2.79,2.79,0,0,0-.17,1Z"/>
        <path class="cls-3" d="M25.54,63.56V59.69h-.59V58.8h.59v-.54A1.7,1.7,0,0,1,26,57a1.56,1.56,0,0,1,1.17-.43l.29,0,.33.07-.1.93-.18,0h-.2a.43.43,0,0,0-.37.18.85.85,0,0,0-.13.5v.54h.76v.88h-.76v3.87Z"/>
        <path class="cls-3" d="M29.77,63.65A1.76,1.76,0,0,1,28.31,63a2.6,2.6,0,0,1-.52-1.67v-.18a2.88,2.88,0,0,1,.5-1.75,1.64,1.64,0,0,1,1.4-.68,1.54,1.54,0,0,1,1.29.58,2.49,2.49,0,0,1,.45,1.56v.68H29a1.67,1.67,0,0,0,.24.84.72.72,0,0,0,.64.31,1.93,1.93,0,0,0,.62-.08,2.55,2.55,0,0,0,.53-.27l.32.77a2.06,2.06,0,0,1-.69.39A2.69,2.69,0,0,1,29.77,63.65Zm-.07-4a.5.5,0,0,0-.46.27,1.89,1.89,0,0,0-.19.75h1.18V60.6a1.53,1.53,0,0,0-.12-.68A.41.41,0,0,0,29.7,59.69Z"/>
        <path class="cls-3" d="M34.18,62.32A.47.47,0,0,0,34,62a2.71,2.71,0,0,0-.63-.37A3.31,3.31,0,0,1,32.3,61a1.13,1.13,0,0,1-.36-.87,1.27,1.27,0,0,1,.46-1,1.78,1.78,0,0,1,1.23-.41,1.86,1.86,0,0,1,1.28.42,1.31,1.31,0,0,1,.45,1.07v0h-1.2a.81.81,0,0,0-.13-.48.46.46,0,0,0-.4-.18.51.51,0,0,0-.36.14.46.46,0,0,0-.15.34.43.43,0,0,0,.14.34,3,3,0,0,0,.63.36,3.09,3.09,0,0,1,1.12.61,1.28,1.28,0,0,1-.12,1.9,2,2,0,0,1-1.28.39,1.79,1.79,0,0,1-1.31-.47,1.4,1.4,0,0,1-.46-1.08v0H33a.77.77,0,0,0,.18.56.67.67,0,0,0,.48.17.57.57,0,0,0,.4-.13A.46.46,0,0,0,34.18,62.32Z"/>
        <path class="cls-3" d="M38.13,62.32A.47.47,0,0,0,38,62a2.7,2.7,0,0,0-.63-.37A3.31,3.31,0,0,1,36.25,61a1.13,1.13,0,0,1-.37-.87,1.27,1.27,0,0,1,.46-1,1.78,1.78,0,0,1,1.23-.41,1.85,1.85,0,0,1,1.28.42,1.31,1.31,0,0,1,.46,1.07v0h-1.2a.81.81,0,0,0-.13-.48.46.46,0,0,0-.4-.18.51.51,0,0,0-.36.14.46.46,0,0,0-.15.34.43.43,0,0,0,.15.34,3,3,0,0,0,.63.36,3.09,3.09,0,0,1,1.12.61,1.28,1.28,0,0,1-.12,1.9,2,2,0,0,1-1.28.39,1.8,1.8,0,0,1-1.31-.47,1.39,1.39,0,0,1-.46-1.08v0h1.13a.77.77,0,0,0,.18.56.67.67,0,0,0,.48.17.57.57,0,0,0,.4-.13A.46.46,0,0,0,38.13,62.32Z"/>
        <path class="cls-3" d="M41.27,57.65H40V56.7h1.24Zm0,5.91H40V58.8h1.24Z"/>
        <path class="cls-3" d="M42,61.13a2.81,2.81,0,0,1,.51-1.75,1.87,1.87,0,0,1,2.88,0,2.78,2.78,0,0,1,.52,1.75v.1A2.78,2.78,0,0,1,45.4,63a1.89,1.89,0,0,1-2.88,0A2.78,2.78,0,0,1,42,61.24Zm1.23.1a2.76,2.76,0,0,0,.17,1.05.57.57,0,0,0,.56.39.56.56,0,0,0,.54-.39,2.74,2.74,0,0,0,.17-1.05v-.1a2.76,2.76,0,0,0-.17-1.05.58.58,0,0,0-1.11,0,2.79,2.79,0,0,0-.17,1Z"/>
        <path class="cls-3" d="M47.72,58.8l.05.66a1.62,1.62,0,0,1,.49-.55,1.14,1.14,0,0,1,.65-.2,1.11,1.11,0,0,1,1,.47,2.54,2.54,0,0,1,.34,1.48v2.89H49V60.67a1.6,1.6,0,0,0-.13-.76.42.42,0,0,0-.39-.22.72.72,0,0,0-.37.1.84.84,0,0,0-.28.27v3.5H46.56V58.8Z"/>
        <path class="cls-3" d="M53.39,63.56a2,2,0,0,1-.12-.34,2.83,2.83,0,0,1-.07-.38,1.68,1.68,0,0,1-.42.58.92.92,0,0,1-.63.23,1.29,1.29,0,0,1-1-.38,1.48,1.48,0,0,1-.35-1,1.33,1.33,0,0,1,.46-1.08,2.09,2.09,0,0,1,1.37-.38h.54v-.4a1,1,0,0,0-.13-.55.44.44,0,0,0-.39-.19.41.41,0,0,0-.35.15.71.71,0,0,0-.12.44H51v0a1.27,1.27,0,0,1,.46-1,1.87,1.87,0,0,1,1.29-.43,1.72,1.72,0,0,1,1.22.43,1.59,1.59,0,0,1,.47,1.23v2a4,4,0,0,0,0,.63,3.72,3.72,0,0,0,.15.6Zm-.91-.83a.7.7,0,0,0,.44-.15.76.76,0,0,0,.26-.37v-.75h-.54a.52.52,0,0,0-.46.2.87.87,0,0,0-.14.51.63.63,0,0,0,.12.4A.38.38,0,0,0,52.48,62.73Z"/>
        <path class="cls-3" d="M56.52,63.56H55.28V56.7h1.24Z"/>
        <path class="cls-3" d="M63.83,61.21h0l.66-4.05h1.26l-1.25,6.4H63.37l-.94-4h0l-.93,4H60.32l-1.26-6.4h1.27L61,61.22h0l.92-4.06h1Z"/>
        <path class="cls-3" d="M68,63.65A1.76,1.76,0,0,1,66.5,63,2.6,2.6,0,0,1,66,61.32v-.18a2.88,2.88,0,0,1,.5-1.75,1.64,1.64,0,0,1,1.4-.68,1.54,1.54,0,0,1,1.29.58,2.49,2.49,0,0,1,.45,1.56v.68h-2.4a1.67,1.67,0,0,0,.24.84.72.72,0,0,0,.64.31,1.93,1.93,0,0,0,.62-.08,2.57,2.57,0,0,0,.53-.27l.32.77a2.06,2.06,0,0,1-.69.39A2.69,2.69,0,0,1,68,63.65Zm-.07-4a.49.49,0,0,0-.46.27,1.89,1.89,0,0,0-.19.75h1.18V60.6a1.53,1.53,0,0,0-.12-.68A.41.41,0,0,0,67.89,59.69Z"/>
        <path class="cls-3" d="M74,61.3A3.16,3.16,0,0,1,73.62,63a1.32,1.32,0,0,1-1.19.64,1.09,1.09,0,0,1-.6-.16A1.35,1.35,0,0,1,71.4,63l-.08.53H70.26V56.7h1.24v2.52a1.22,1.22,0,0,1,.4-.38,1.06,1.06,0,0,1,.53-.13,1.31,1.31,0,0,1,1.19.68A3.51,3.51,0,0,1,74,61.21Zm-1.24-.09a3.37,3.37,0,0,0-.15-1.12.53.53,0,0,0-.53-.4.63.63,0,0,0-.37.11.75.75,0,0,0-.25.31v2.21a.63.63,0,0,0,.25.27.74.74,0,0,0,.38.09.53.53,0,0,0,.53-.35,2.9,2.9,0,0,0,.14-1Z"/>
        <path class="cls-3" d="M76.8,62.32a.47.47,0,0,0-.16-.36,2.72,2.72,0,0,0-.63-.37A3.29,3.29,0,0,1,74.92,61a1.13,1.13,0,0,1-.37-.87,1.27,1.27,0,0,1,.46-1,1.78,1.78,0,0,1,1.23-.41,1.86,1.86,0,0,1,1.28.42A1.31,1.31,0,0,1,78,60.21v0h-1.2a.81.81,0,0,0-.13-.48.46.46,0,0,0-.4-.18.51.51,0,0,0-.36.14.46.46,0,0,0-.15.34.44.44,0,0,0,.14.34,3.05,3.05,0,0,0,.63.36,3.08,3.08,0,0,1,1.12.61,1.28,1.28,0,0,1-.12,1.9,2,2,0,0,1-1.28.39,1.79,1.79,0,0,1-1.31-.47,1.4,1.4,0,0,1-.46-1.08v0h1.13a.77.77,0,0,0,.18.56.67.67,0,0,0,.48.17.57.57,0,0,0,.4-.13A.46.46,0,0,0,76.8,62.32Z"/>
        <path class="cls-3" d="M79.93,57.65H78.7V56.7h1.24Zm0,5.91H78.7V58.8h1.24Z"/>
        <path class="cls-3" d="M82.27,57.62V58.8h.65v.88h-.65v2.42a.79.79,0,0,0,.09.43.28.28,0,0,0,.24.13h.14l.14,0,.1.91-.34.09a2,2,0,0,1-.36,0,1.17,1.17,0,0,1-.93-.37A1.74,1.74,0,0,1,81,62.12V59.69h-.58V58.8H81V57.62Z"/>
        <path class="cls-3" d="M85.43,63.65A1.76,1.76,0,0,1,84,63a2.6,2.6,0,0,1-.52-1.67v-.18a2.88,2.88,0,0,1,.5-1.75,1.64,1.64,0,0,1,1.4-.68,1.54,1.54,0,0,1,1.29.58,2.49,2.49,0,0,1,.45,1.56v.68h-2.4a1.67,1.67,0,0,0,.24.84.72.72,0,0,0,.64.31,1.93,1.93,0,0,0,.62-.08,2.57,2.57,0,0,0,.53-.27l.32.77a2.06,2.06,0,0,1-.69.39A2.69,2.69,0,0,1,85.43,63.65Zm-.07-4a.49.49,0,0,0-.46.27,1.89,1.89,0,0,0-.19.75h1.18V60.6a1.53,1.53,0,0,0-.12-.68A.41.41,0,0,0,85.36,59.69Z"/>
      </g>
    </g>
  </g>
</svg>
