<svg xmlns="http://www.w3.org/2000/svg" viewBox="0 0 20 20">
  <defs>
    <style>
      .cls-1 {
        fill: #347ad3;
      }

      .cls-2 {
        fill: none;
      }
    </style>
  </defs>
  <title>Asset 3</title>
  <g id="Layer_2" data-name="Layer 2">
    <g id="Layer_1-2" data-name="Layer 1">
      <g>
        <path class="cls-1" d="M4,13.26A3.2,3.2,0,0,1,1.92,14Q.63,14,.33,13.28a1,1,0,0,1-.07-.39.76.76,0,0,1,.23-.49,1.26,1.26,0,0,1,1-.41,2.56,2.56,0,0,1,.87.16,14.14,14.14,0,0,1,1.54.75,6.74,6.74,0,0,0,1-1.28,17.45,17.45,0,0,0,.87-1.54q.36-.74.89-1.63A9.44,9.44,0,0,1,7.7,7a4.57,4.57,0,0,0-2.38-.67,5.32,5.32,0,0,0-1.06.11A3.93,3.93,0,0,0,1.9,7.77,1.91,1.91,0,0,0,1.4,9a1,1,0,0,0,.73,1,1.76,1.76,0,0,0,.45.07A1.73,1.73,0,0,0,3,10a1.07,1.07,0,0,0,.47-.28,1.39,1.39,0,0,0,.47-.82c0-.06,0-.08.12-.07s.1.07.08.16a1.45,1.45,0,0,1-.77,1.11,1.72,1.72,0,0,1-.82.22L2,10.19a1.5,1.5,0,0,1-1-1,1.56,1.56,0,0,1-.1-.54,1.79,1.79,0,0,1,.41-1.09A4.54,4.54,0,0,1,4.46,6.07,6.44,6.44,0,0,1,5.33,6,5.63,5.63,0,0,1,8,6.68,4.32,4.32,0,0,1,8.7,6a1,1,0,0,1,.53-.23c.07,0,.12,0,.13,0a.06.06,0,0,1,0,.07.09.09,0,0,1-.07,0q-.17,0-.44.36a5.64,5.64,0,0,0-.44.67A4.69,4.69,0,0,1,10,8.74a4.23,4.23,0,0,1,.45,1.94,3.2,3.2,0,0,1-.62,2.07,2.76,2.76,0,0,1-1.24.89A5.12,5.12,0,0,1,6.91,14,5.77,5.77,0,0,1,4,13.26Zm-.34-.16q-1.17-.56-1.48-.67a1.81,1.81,0,0,0-.6-.11.57.57,0,0,0-.47.22.67.67,0,0,0-.17.4.74.74,0,0,0,.08.33.86.86,0,0,0,.86.43A3,3,0,0,0,3.64,13.1Zm.58,0a4.55,4.55,0,0,0,2.37.6,3.49,3.49,0,0,0,2.52-.9,2.69,2.69,0,0,0,.75-2A4.21,4.21,0,0,0,9.5,9,4.39,4.39,0,0,0,8.17,7.31q-.29.45-1.11,1.81t-1.4,2.22a10.4,10.4,0,0,1-.9,1.2A7.06,7.06,0,0,1,4.22,13.07Z"/>
        <path class="cls-1" d="M19.38,6.82a.92.92,0,0,0-.32-.66,1.77,1.77,0,0,0-1.27-.44A4.68,4.68,0,0,0,16.22,6a2.49,2.49,0,0,0-.78.44,1.21,1.21,0,0,0-.51.88,1.3,1.3,0,0,0,.75,1.06Q16,8.59,16.8,9A12.21,12.21,0,0,1,18,9.6a2.21,2.21,0,0,1,.82.77,1.6,1.6,0,0,1,.22.76,1.9,1.9,0,0,1-.33,1,4.92,4.92,0,0,1-1.7,1.6,5.89,5.89,0,0,1-3.11.78,4.11,4.11,0,0,1-2.78-.89,2.19,2.19,0,0,1-.8-1.75,3,3,0,0,1,.5-1.5,2.86,2.86,0,0,1,1.21-1.16.39.39,0,0,1,.22,0s0,.08-.12.19a3.06,3.06,0,0,0-.69.75A3.49,3.49,0,0,0,10.92,12a1.94,1.94,0,0,0,.38,1.19,3.05,3.05,0,0,0,2.36,1l.57,0a5.29,5.29,0,0,0,1-.13,4.87,4.87,0,0,0,1.25-.45,3.25,3.25,0,0,0,1.67-1.76,1.76,1.76,0,0,0,.12-.62,1.54,1.54,0,0,0-.61-1.2,6.88,6.88,0,0,0-1.34-.69A10.25,10.25,0,0,1,15,8.76a1.48,1.48,0,0,1-.77-1.23,1.64,1.64,0,0,1,.69-1.21,4.21,4.21,0,0,1,2.8-.84,3.24,3.24,0,0,1,1.39.25,1.11,1.11,0,0,1,.65.76,1,1,0,0,1,0,.2.91.91,0,0,1-.36.7,1.89,1.89,0,0,1-.67.32c-.12,0-.19,0-.2,0s.07-.14.25-.16A.63.63,0,0,0,19.35,7,.81.81,0,0,0,19.38,6.82Z"/>
      </g>
      <rect class="cls-2" width="20" height="20"/>
    </g>
  </g>
</svg>
