<?xml version="1.0" encoding="utf-8"?>
<!-- Generator: Adobe Illustrator 21.1.0, SVG Export Plug-In . SVG Version: 6.00 Build 0)  -->
<svg version="1.1" id="Layer_1" xmlns="http://www.w3.org/2000/svg" xmlns:xlink="http://www.w3.org/1999/xlink" x="0px" y="0px"
	 viewBox="0 0 20 20" style="enable-background:new 0 0 20 20;" xml:space="preserve">
<style type="text/css">
	.st0{fill:#347AD3;}
	.st1{fill:#FFFFFF;}
	.st2{fill:none;}
</style>
<path class="st0" d="M17,20H3c-1.6,0-3-1.3-3-3V3c0-1.6,1.3-3,3-3H17c1.6,0,3,1.3,3,3V17C20,18.7,18.7,20,17,20z"/>
<title>Asset 3</title>
<g id="Layer_2">
	<g id="Layer_1-2">
		<g>
			<path class="st1" d="M8.1,14.8c-0.8,0.7-1.9,1.1-3,1.1c-1.2,0-2-0.3-2.3-1c-0.1-0.2-0.1-0.4-0.1-0.6c0-0.3,0.1-0.5,0.3-0.7
				C3.4,13.2,3.9,13,4.4,13c0.4,0,0.8,0.1,1.2,0.2c0.8,0.3,1.5,0.7,2.2,1.1c0.6-0.6,1-1.2,1.4-1.8c0.5-0.7,0.9-1.5,1.2-2.2
				c0.3-0.7,0.8-1.5,1.3-2.3c0.4-0.7,0.9-1.4,1.5-2.1c-1-0.6-2.2-1-3.4-1c-0.5,0-1,0.1-1.5,0.2C7.1,5.3,5.9,5.9,5,7
				C4.6,7.4,4.3,8.1,4.3,8.7c0,0.7,0.4,1.3,1,1.4c0.2,0.1,0.4,0.1,0.6,0.1c0.2,0,0.4,0,0.6-0.1c0.3-0.1,0.5-0.2,0.7-0.4
				C7.6,9.5,7.9,9,8,8.6c0-0.1,0-0.1,0.2-0.1c0.2,0,0.1,0.1,0.1,0.2C8.2,9.4,7.8,10,7.1,10.3c-0.4,0.2-0.8,0.3-1.2,0.3l-0.8-0.2
				C4.5,10.2,3.9,9.7,3.7,9C3.6,8.8,3.6,8.5,3.6,8.2c0-0.6,0.2-1.1,0.6-1.6C5.3,5.4,7,4.6,8.7,4.5C9.1,4.5,9.5,4.4,10,4.4
				c1.3,0,2.7,0.3,3.8,1c0.3-0.4,0.6-0.7,1-1c0.2-0.2,0.5-0.3,0.8-0.3c0.1,0,0.2,0,0.2,0c0,0,0,0.1,0,0.1c0,0-0.1,0-0.1,0
				c-0.2,0-0.4,0.2-0.6,0.5c-0.2,0.3-0.4,0.6-0.6,1c1,0.7,1.8,1.6,2.3,2.7c0.4,0.9,0.7,1.8,0.6,2.8c0.1,1.1-0.3,2.1-0.9,3
				c-0.5,0.6-1.1,1-1.8,1.3c-0.8,0.3-1.6,0.5-2.4,0.5C10.8,15.9,9.3,15.6,8.1,14.8z M7.6,14.6c-1.1-0.5-1.8-0.9-2.1-1
				c-0.3-0.1-0.6-0.2-0.9-0.2c-0.3,0-0.5,0.1-0.7,0.3c-0.1,0.2-0.2,0.4-0.2,0.6c0,0.2,0,0.3,0.1,0.5C4,15.3,4.5,15.5,5,15.5
				C5.9,15.5,6.8,15.2,7.6,14.6L7.6,14.6z M8.4,14.6c1,0.6,2.2,0.9,3.4,0.9c1.3,0.1,2.6-0.4,3.6-1.3c0.7-0.8,1.1-1.8,1.1-2.9
				c0-0.9-0.2-1.8-0.5-2.6c-0.4-1-1.1-1.8-1.9-2.4c-0.3,0.4-0.8,1.3-1.6,2.6c-0.8,1.3-1.5,2.4-2,3.2c-0.4,0.6-0.8,1.2-1.3,1.7
				C8.9,14.1,8.6,14.3,8.4,14.6L8.4,14.6z"/>
		</g>
		<rect class="st2" width="20" height="20"/>
	</g>
</g>
</svg>
