<svg xmlns="http://www.w3.org/2000/svg" viewBox="0 0 122.16 21.72">
  <title>signature</title>
  <g id="Layer_2" data-name="Layer 2">
    <g id="Layer_1-2" data-name="Layer 1">
      <g>
        <path d="M8.93,18.67A7.69,7.69,0,0,1,4,20.47q-3.1,0-3.82-1.73A2.47,2.47,0,0,1,0,17.8a1.83,1.83,0,0,1,.55-1.16,3,3,0,0,1,2.4-1A6.18,6.18,0,0,1,5,16a34.23,34.23,0,0,1,3.71,1.79,16,16,0,0,0,2.4-3.07A41.65,41.65,0,0,0,13.21,11q.88-1.79,2.14-3.9a22.56,22.56,0,0,1,2.51-3.5A11,11,0,0,0,12.14,2a12.74,12.74,0,0,0-2.54.26A9.44,9.44,0,0,0,3.94,5.52a4.6,4.6,0,0,0-1.2,2.83,2.28,2.28,0,0,0,1.75,2.38,4.23,4.23,0,0,0,1.08.17,4.18,4.18,0,0,0,1-.14,2.56,2.56,0,0,0,1.12-.67,3.33,3.33,0,0,0,1.13-2c0-.14.11-.2.28-.16s.24.16.2.37A3.48,3.48,0,0,1,7.46,11a4.14,4.14,0,0,1-2,.53L4.25,11.3A3.6,3.6,0,0,1,1.85,9a3.7,3.7,0,0,1-.24-1.3,4.3,4.3,0,0,1,1-2.62Q4.7,2.23,10.08,1.44a15.49,15.49,0,0,1,2.09-.14,13.53,13.53,0,0,1,6.36,1.58,10.29,10.29,0,0,1,1.73-1.64A2.46,2.46,0,0,1,21.53.67q.26,0,.31.11a.14.14,0,0,1,0,.17.21.21,0,0,1-.16.06q-.41,0-1.06.86a13.77,13.77,0,0,0-1.06,1.61,11.28,11.28,0,0,1,3.91,4.37,10.17,10.17,0,0,1,1.08,4.66,7.69,7.69,0,0,1-1.49,5,6.65,6.65,0,0,1-3,2.14,12.24,12.24,0,0,1-4.13.74A13.82,13.82,0,0,1,8.93,18.67Zm-.82-.38Q5.3,16.94,4.56,16.68a4.33,4.33,0,0,0-1.45-.26A1.37,1.37,0,0,0,2,16.94a1.6,1.6,0,0,0-.42.95,1.77,1.77,0,0,0,.19.8,2.07,2.07,0,0,0,2.06,1A7.19,7.19,0,0,0,8.11,18.29Zm1.39,0a10.93,10.93,0,0,0,5.69,1.44,8.38,8.38,0,0,0,6-2.16A6.45,6.45,0,0,0,23,12.67a10.11,10.11,0,0,0-.86-4.15A10.52,10.52,0,0,0,19,4.39q-.7,1.08-2.68,4.36T13,14.06A25.36,25.36,0,0,1,10.8,17,17,17,0,0,1,9.5,18.24Z"/>
        <path d="M31.7,15a10.05,10.05,0,0,0-.95,2.28,6.31,6.31,0,0,0-.16,1.22q0,.47.36.47t1.13-.84A17.09,17.09,0,0,0,34,14.93c.06-.14.14-.22.22-.24s.19,0,.19.14a.76.76,0,0,1-.07.29q-2.21,4.46-3.72,4.46a1.3,1.3,0,0,1-1.13-.67,1.86,1.86,0,0,1-.22-1,5.64,5.64,0,0,1,.24-1.46q-1.92,3.1-3.31,3.1a1.11,1.11,0,0,1-.7-.24,2,2,0,0,1-.72-1.73,7.48,7.48,0,0,1,2-4.78,5.3,5.3,0,0,1,2.83-1.75,3.39,3.39,0,0,1,.86-.12,2.55,2.55,0,0,1,1.87.77.47.47,0,0,1,.14.5.33.33,0,0,1-.41.19A1.11,1.11,0,0,0,31,11.57q-1,0-2.54,1.63a13.1,13.1,0,0,0-1.61,2.26,5.33,5.33,0,0,0-.94,2.5q0,.94.6.94,1.44,0,3.77-4.42a5.51,5.51,0,0,1,.77-1.21,1.05,1.05,0,0,1,.79-.32l.49.07a1.52,1.52,0,0,0,.59,0A9.16,9.16,0,0,0,31.7,15Z"/>
        <path d="M41.28,11.66q-3,5.18-3,6.77,0,.62.46.62,1.22,0,3.29-4.15.14-.34.29-.26a.22.22,0,0,1,.14.19.61.61,0,0,1-.1.29,17,17,0,0,1-2.15,3.54,2.44,2.44,0,0,1-1.75,1A1.51,1.51,0,0,1,37.18,19a1.36,1.36,0,0,1-.24-.85,4.52,4.52,0,0,1,.24-1.31,12.94,12.94,0,0,1,1.32-2.5,1.46,1.46,0,0,0,.26-.68q0-.25-.41-.25t-1.56,1.08a16.65,16.65,0,0,0-3.34,4.75.64.64,0,0,1-.32.3,3.16,3.16,0,0,1-.71.08,1.78,1.78,0,0,0-.7.12q.38-.77,1.51-3.14a25.66,25.66,0,0,1,2.64-4.8,1.07,1.07,0,0,1,.79-.29l.49.07a1.52,1.52,0,0,0,.59,0q-.89.48-2.9,4.51a19.49,19.49,0,0,1,2.05-2.22,11.69,11.69,0,0,1,2.22-1.54,4.7,4.7,0,0,1,1.9-.71A.7.7,0,0,1,41.28,11.66Z"/>
        <path d="M43,19a1.47,1.47,0,0,0,1-.46,15.33,15.33,0,0,0,2.26-3.62c.11-.24.22-.31.34-.22a.22.22,0,0,1,0,.16,1.94,1.94,0,0,1-.19.53l-.35.76q-.16.34-.6,1.09a7.69,7.69,0,0,1-.8,1.16,2.66,2.66,0,0,1-1.86,1.13A1.45,1.45,0,0,1,41.54,19a2,2,0,0,1-.38-1.18,3.78,3.78,0,0,1,.31-1.42L43,12.5a1.24,1.24,0,0,0,0-.38,1.16,1.16,0,0,0-.29-.62l1.32,0q.55,0,.65.2c.06.14,0,.35-.14.64L42.67,16.8a3.76,3.76,0,0,0-.41,1.51Q42.26,19,43,19Zm2.35-8.81a1.12,1.12,0,0,1-.74.29A.8.8,0,0,1,44,10.2a.88.88,0,0,1-.19-.7,1.16,1.16,0,0,1,.41-.7,1.12,1.12,0,0,1,.74-.29.84.84,0,0,1,.66.29.8.8,0,0,1,.18.7A1.17,1.17,0,0,1,45.36,10.2Z"/>
        <path d="M47.3,15.84A4.76,4.76,0,0,0,47,17.66a1.72,1.72,0,0,0,.3,1.07,1,1,0,0,0,.85.4q2.18,0,4-4.1c.11-.25.25-.37.41-.34a.11.11,0,0,1,.1.12A10,10,0,0,1,52,16.07,10.23,10.23,0,0,1,51,18a3.64,3.64,0,0,1-3,1.68A2.31,2.31,0,0,1,46.3,19a2.21,2.21,0,0,1-.67-1.7A5.87,5.87,0,0,1,46.14,15a8.79,8.79,0,0,1,1.4-2.26,5.39,5.39,0,0,1,2-1.52A2.66,2.66,0,0,1,50.64,11a1.65,1.65,0,0,1,.94.29A1,1,0,0,1,52,12a3.61,3.61,0,0,1-1.73,2.76,5.17,5.17,0,0,1-1.49.73A5,5,0,0,1,47.3,15.84Zm4-3.84q0-.48-.38-.48-.67,0-2,1.66a12.37,12.37,0,0,0-1.44,2.26,3.78,3.78,0,0,0,1.19-.29A4.55,4.55,0,0,0,50,14.38,3.17,3.17,0,0,0,51.34,12Z"/>
        <path d="M53.25,15.56q-.19.57-.32,1.08a4.12,4.12,0,0,0-.13,1,2,2,0,0,0,.24,1,.81.81,0,0,0,.77.44,2.2,2.2,0,0,0,1.68-1.16,24.58,24.58,0,0,0,1.73-3q.19-.34.36-.26a.19.19,0,0,1,0,.25l-.3.67c-.15.34-.26.58-.34.72l-.38.72a5.14,5.14,0,0,1-.48.77l-.55.65a3,3,0,0,1-.66.59,3,3,0,0,1-1.58.53,1.81,1.81,0,0,1-1.15-.32,1.27,1.27,0,0,1-.49-.7,3,3,0,0,1-.08-.66q0-.29,0-.74a7.09,7.09,0,0,1,.3-1.49c.15-.48.24-.75.25-.82a33.68,33.68,0,0,1,1.57-4.34A32.83,32.83,0,0,1,55.48,7a10.26,10.26,0,0,1,1.12-1.62,2.29,2.29,0,0,1,1.61-.86q.55,0,.74.79a2.29,2.29,0,0,1,0,.36,5.2,5.2,0,0,1-.58,2.06,21.71,21.71,0,0,1-4.92,7.2C53.45,15,53.38,15.19,53.25,15.56ZM56.09,11a23.36,23.36,0,0,0,1.76-3.23A6,6,0,0,0,58.41,6q0-.48-.17-.48t-.91.95a24.11,24.11,0,0,0-1.81,3.41q-1.14,2.46-1.86,4.31A19,19,0,0,0,56.09,11Z"/>
        <path d="M83.71,3.24a2.2,2.2,0,0,0-.77-1.58,4.23,4.23,0,0,0-3-1.06,11.2,11.2,0,0,0-3.77.74A6,6,0,0,0,74.25,2.4,2.9,2.9,0,0,0,73,4.51a3.13,3.13,0,0,0,1.8,2.54q.67.41,2.7,1.33a29.36,29.36,0,0,1,3,1.5,5.31,5.31,0,0,1,2,1.85A3.84,3.84,0,0,1,83,13.56,4.56,4.56,0,0,1,82.2,16a11.85,11.85,0,0,1-4.08,3.84,14.17,14.17,0,0,1-7.46,1.87A9.86,9.86,0,0,1,64,19.58a5.26,5.26,0,0,1-1.92-4.2,7.1,7.1,0,0,1,1.19-3.6A6.87,6.87,0,0,1,66.17,9a.94.94,0,0,1,.54-.1c.12,0,0,.18-.3.46a7.27,7.27,0,0,0-1.66,1.8,8.37,8.37,0,0,0-1.34,4.58,4.65,4.65,0,0,0,.91,2.86Q66,20.78,70,21.07q.46,0,1.36,0a12.73,12.73,0,0,0,2.45-.32,11.73,11.73,0,0,0,3-1.07,7.81,7.81,0,0,0,4-4.22A4.24,4.24,0,0,0,81.07,14a3.7,3.7,0,0,0-1.46-2.88,16.46,16.46,0,0,0-3.23-1.67,24.61,24.61,0,0,1-3.28-1.6,3.56,3.56,0,0,1-1.85-3A3.93,3.93,0,0,1,72.91,2a10.09,10.09,0,0,1,6.72-2A7.76,7.76,0,0,1,83,.61a2.67,2.67,0,0,1,1.57,1.84,2.5,2.5,0,0,1,0,.48,2.18,2.18,0,0,1-.86,1.68,4.56,4.56,0,0,1-1.61.77c-.29.08-.45,0-.48-.1s.17-.34.6-.38a1.51,1.51,0,0,0,1.42-1.15A2,2,0,0,0,83.71,3.24Z"/>
        <path d="M84.48,17.62q0-2,1.92-6.67H85.15a.15.15,0,0,1-.16-.13.39.39,0,0,1,0-.26.2.2,0,0,1,.18-.13h1.44q.86-1.9,1.61-3.17a5.58,5.58,0,0,1,1.37-1.72,2,2,0,0,1,.9-.44,1.19,1.19,0,0,1,.4,0,1.09,1.09,0,0,1,.55,1.09,4.88,4.88,0,0,1-.55,2q-.55,1.18-1.08,2.18H91a.15.15,0,0,1,.16.13.39.39,0,0,1,0,.26.2.2,0,0,1-.18.13H89.54a17.48,17.48,0,0,1-3.19,4l-.55,2.45a2.67,2.67,0,0,0-.07.61,1.29,1.29,0,0,0,.17.61.56.56,0,0,0,.53.31,1.87,1.87,0,0,0,.91-.29A10.69,10.69,0,0,0,89.88,15a.44.44,0,0,1,.23-.26c.09,0,.14,0,.15.06a.69.69,0,0,1-.07.35,22.86,22.86,0,0,1-1.25,2.35q-1.3,2.09-2.76,2.09A1.55,1.55,0,0,1,85,19,2,2,0,0,1,84.48,17.62ZM89,10.94H87.86q-.29.67-1.3,3.19A18.37,18.37,0,0,0,89,10.94Zm.31-.53a10.29,10.29,0,0,0,1.58-3.94c0-.32-.06-.48-.17-.48s-.44.26-.8.77a27.43,27.43,0,0,0-1.81,3.65Z"/>
        <path d="M96,15A10,10,0,0,0,95,17.27a6.39,6.39,0,0,0-.16,1.22c0,.31.12.47.36.47s.68-.28,1.13-.84a17,17,0,0,0,1.94-3.19q.1-.22.22-.24c.13,0,.19,0,.19.14a.74.74,0,0,1-.07.29q-2.21,4.46-3.72,4.46a1.3,1.3,0,0,1-1.13-.67,1.87,1.87,0,0,1-.21-1,5.62,5.62,0,0,1,.24-1.46q-1.92,3.1-3.31,3.1a1.11,1.11,0,0,1-.7-.24,2,2,0,0,1-.72-1.73,7.48,7.48,0,0,1,2-4.78,5.31,5.31,0,0,1,2.83-1.75A3.4,3.4,0,0,1,94.8,11a2.55,2.55,0,0,1,1.87.77.47.47,0,0,1,.14.5.33.33,0,0,1-.41.19,1.11,1.11,0,0,0-1.15-.86q-1,0-2.54,1.63a13.1,13.1,0,0,0-1.61,2.26,5.34,5.34,0,0,0-.94,2.5q0,.94.6.94,1.44,0,3.77-4.42a5.44,5.44,0,0,1,.77-1.21,1,1,0,0,1,.79-.32l.49.07a1.52,1.52,0,0,0,.59,0A9.19,9.19,0,0,0,96,15Z"/>
        <path d="M104.33,13q0-1.37-1.13-1.37H103q-.43,0-.5-.17c0-.14,0-.24.21-.29a1.62,1.62,0,0,1,.63,0,2.08,2.08,0,0,1,1.7,1.18,2.53,2.53,0,0,1,.31,1.18,6.66,6.66,0,0,1-1.51,4.06,4.68,4.68,0,0,1-3.91,2,2.05,2.05,0,0,1-1.44-.5,1.73,1.73,0,0,1-.55-1.34,9.57,9.57,0,0,1,1.15-3.41,25.56,25.56,0,0,1-2.54,4.27c-.16.14-.24.1-.24-.14a.39.39,0,0,1,0-.17,54.94,54.94,0,0,0,3.35-6q2.51-4.9,3.52-6.41Q104,4.7,104.81,4.7h.14l.42.07a1.51,1.51,0,0,0,.59,0,31,31,0,0,0-2.5,3.36q-4.22,6.26-4.22,9.36,0,1.27.81,1.44l.17,0q.74,0,1.86-1.33a11.93,11.93,0,0,0,1.84-3A3.91,3.91,0,0,0,104.33,13Z"/>
        <path d="M107.49,19a1.47,1.47,0,0,0,1-.46,15.29,15.29,0,0,0,2.26-3.62c.11-.24.22-.31.34-.22a.22.22,0,0,1,0,.16,2,2,0,0,1-.19.53l-.35.76c-.11.22-.3.59-.6,1.09a7.63,7.63,0,0,1-.8,1.16,2.66,2.66,0,0,1-1.86,1.13A1.45,1.45,0,0,1,106,19a2,2,0,0,1-.38-1.18,3.8,3.8,0,0,1,.31-1.42l1.54-3.91a1.27,1.27,0,0,0,0-.38,1.16,1.16,0,0,0-.29-.62l1.32,0c.37,0,.58.07.65.2s0,.35-.14.64l-1.92,4.49a3.74,3.74,0,0,0-.41,1.51Q106.75,19,107.49,19Zm2.35-8.81a1.12,1.12,0,0,1-.74.29.8.8,0,0,1-.65-.29.88.88,0,0,1-.19-.7,1.17,1.17,0,0,1,.41-.7,1.12,1.12,0,0,1,.74-.29.84.84,0,0,1,.66.29.79.79,0,0,1,.18.7A1.17,1.17,0,0,1,109.85,10.2Z"/>
        <path d="M111.84,15.56q-.19.57-.32,1.08a4.16,4.16,0,0,0-.13,1,2,2,0,0,0,.24,1,.81.81,0,0,0,.77.44,2.2,2.2,0,0,0,1.68-1.16,24.72,24.72,0,0,0,1.73-3c.13-.22.25-.31.36-.26a.19.19,0,0,1,0,.25l-.3.67c-.15.34-.26.58-.34.72l-.38.72a5,5,0,0,1-.48.77l-.55.65a3.07,3.07,0,0,1-.66.59,3,3,0,0,1-1.58.53,1.81,1.81,0,0,1-1.15-.32,1.27,1.27,0,0,1-.49-.7,3,3,0,0,1-.08-.66q0-.29,0-.74a7.16,7.16,0,0,1,.3-1.49c.15-.48.24-.75.25-.82a33.54,33.54,0,0,1,1.57-4.34A32.83,32.83,0,0,1,114.06,7a10.2,10.2,0,0,1,1.12-1.62,2.29,2.29,0,0,1,1.61-.86q.55,0,.74.79a2.29,2.29,0,0,1,0,.36A5.21,5.21,0,0,1,117,7.7a21.72,21.72,0,0,1-4.92,7.2C112,15,112,15.19,111.84,15.56ZM114.67,11a23.45,23.45,0,0,0,1.76-3.23A6,6,0,0,0,117,6c0-.32-.06-.48-.17-.48s-.46.32-.91.95a24,24,0,0,0-1.81,3.41q-1.14,2.46-1.86,4.31A19,19,0,0,0,114.67,11Z"/>
        <path d="M116.88,15.84a4.78,4.78,0,0,0-.34,1.82,1.72,1.72,0,0,0,.3,1.07,1,1,0,0,0,.85.4q2.18,0,4-4.1c.11-.25.25-.37.41-.34a.12.12,0,0,1,.1.12,9.92,9.92,0,0,1-.54,1.26A10.17,10.17,0,0,1,120.53,18a3.63,3.63,0,0,1-3,1.68,2.31,2.31,0,0,1-1.63-.62,2.21,2.21,0,0,1-.67-1.7,5.87,5.87,0,0,1,.52-2.29,8.79,8.79,0,0,1,1.4-2.26,5.38,5.38,0,0,1,2-1.52,2.65,2.65,0,0,1,1.05-.24,1.66,1.66,0,0,1,.94.29,1,1,0,0,1,.41.74,3.61,3.61,0,0,1-1.73,2.76,5.19,5.19,0,0,1-1.49.73A5.05,5.05,0,0,1,116.88,15.84Zm4-3.84c0-.32-.13-.48-.38-.48q-.67,0-2,1.66A12.32,12.32,0,0,0,117,15.43a3.79,3.79,0,0,0,1.19-.29,4.56,4.56,0,0,0,1.36-.77A3.18,3.18,0,0,0,120.91,12Z"/>
      </g>
    </g>
  </g>
</svg>
