<svg xmlns="http://www.w3.org/2000/svg" viewBox="0 0 100 100">
  <defs>
    <style>
      .cls-1 {
        fill: #48bf91;
      }

      .cls-2, .cls-3 {
        fill: #fff;
      }

      .cls-3 {
        font-size: 10px;
        font-family: Roboto-Bold, Roboto;
        font-weight: 700;
      }

      .cls-4 {
        letter-spacing: -0.01em;
      }

      .cls-5 {
        letter-spacing: -0.01em;
      }

      .cls-6 {
        letter-spacing: 0em;
      }
    </style>
  </defs>
  <title>brux_1</title>
  <g id="Layer_2" data-name="Layer 2">
    <g id="Layer_1-2" data-name="Layer 1">
      <rect class="cls-1" width="100" height="100"/>
      <path class="cls-2" d="M21.17,39a29.15,29.15,0,0,0-.69,18.38,37.72,37.72,0,0,0,3.62,8.25,17.59,17.59,0,0,0,3.46,3.92c3.37,2.83,6.07,5.9,5,10.83C34.2,76.18,33.09,73,30,70a32.75,32.75,0,0,1-3.26-3.58,26,26,0,0,1-5-14.77c0-.09,0-.17,0-.26,0-.45,0-.9,0-1.35,0-.09,0-.18,0-.27s0-.28,0-.43v0a25.75,25.75,0,0,1,4.22-13.85c.08-.14.16-.28.26-.43a27.33,27.33,0,0,1,40.94-5.21c2.54,2.31,4.52,4.93,4.66,8.47.2,4.87,2.33,9,4.71,13,.33.56.61,1.15.94,1.71a2.06,2.06,0,0,1-.51,3.06c-1.22,1-2.28,2.13-3.5,3.11a3.78,3.78,0,0,0-1.45,3.4c.09,2.34.07,4.68,0,7s-1.28,3.73-3.71,3.92A38.22,38.22,0,0,1,51.28,71.1s-.06-.11-.08-.17l-.09.22a5.32,5.32,0,0,0,.53.47,9.93,9.93,0,0,0,1,.6c5,2.7,10.41,3.16,15.89,3.12,3.31,0,5.34-2.35,5.48-5.66.08-1.82.33-3.64.27-5.45a4.82,4.82,0,0,1,2-4.27c5.46-4.51,5.51-4.63,2.12-10.94A29,29,0,0,1,74.7,37.25,12.43,12.43,0,0,0,71.62,30a29.79,29.79,0,0,0-31.7-8.91C35.28,22.61,25.32,28,21.17,39"/>
      <text class="cls-3" transform="translate(30.02 55.52)">Brux<tspan class="cls-4" x="20.64" y="0">F</tspan><tspan class="cls-5" x="26.08" y="0">r</tspan><tspan class="cls-6" x="29.51" y="0">ee</tspan></text>
    </g>
  </g>
</svg>
