<svg xmlns="http://www.w3.org/2000/svg" viewBox="0 0 100 100">
  <defs>
    <style>
      .cls-1 {
        fill: #48bf91;
      }

      .cls-2, .cls-4 {
        opacity: 0.17;
      }

      .cls-3, .cls-4, .cls-6 {
        fill: #fff;
      }

      .cls-5 {
        fill: #0073d8;
      }

      .cls-6 {
        font-size: 10px;
        font-family: Roboto-Bold, Roboto;
        font-weight: 700;
      }

      .cls-7 {
        letter-spacing: -0.01em;
      }

      .cls-8 {
        letter-spacing: -0.01em;
      }

      .cls-9 {
        letter-spacing: -0.02em;
      }
    </style>
  </defs>
  <title>futbol</title>
  <g id="Layer_2" data-name="Layer 2">
    <g id="Layer_1-2" data-name="Layer 1">
      <rect class="cls-1" width="100" height="100"/>
      <g id="_Group_" data-name="&lt;Group&gt;" class="cls-2">
        <path id="_Path_" data-name="&lt;Path&gt;" class="cls-3" d="M4.41,41.08s-.06.55-.1,1.52a39.69,39.69,0,0,0,.07,4c.06.83.14,1.73.27,2.67s.3,1.93.49,3,.45,2.06.76,3.11c.09.33.19.65.29,1l.66,1.94c.42,1.11.87,2.21,1.38,3.26.24.49.47,1,.73,1.44l.38.7c.13.23.27.45.4.68l.4.66c.13.22.28.42.41.64.27.42.53.83.82,1.21s.54.77.82,1.12L13,69c.26.32.53.61.78.9s.48.56.72.8c.47.48.86.93,1.22,1.26L16.82,73l-1.15-1c-.37-.32-.78-.75-1.27-1.22-.25-.23-.49-.5-.75-.78s-.53-.57-.8-.89l-.83-1c-.29-.35-.56-.73-.85-1.11s-.56-.79-.85-1.21-.56-.85-.83-1.3c-.13-.22-.28-.45-.41-.68l-.39-.7c-.27-.47-.51-1-.75-1.45-.49-1-.93-2-1.34-3.08l-.71-2.09c-.11-.35-.22-.7-.31-1.05-.3-1.06-.53-2.11-.74-3.14a40.07,40.07,0,0,1-.66-5.67,35.06,35.06,0,0,1,.05-4C4.32,41.63,4.41,41.08,4.41,41.08Z"/>
        <path id="_Path_2" data-name="&lt;Path&gt;" class="cls-3" d="M8,58.24s0,.08,0,.21.09.34.16.6l.13.42.17.49c.06.18.14.36.22.55s.15.4.25.6l.29.64.35.67c.23.47.53.93.8,1.43s.61,1,1,1.47.68,1,1.07,1.46.73,1,1.13,1.41.76.91,1.16,1.32l1.12,1.2,1,1,.47.46.43.4.71.65.61.57-.66-.52-.75-.61-.46-.37-.49-.44-1.09-1c-.38-.36-.76-.76-1.16-1.17s-.78-.86-1.18-1.31-.78-.93-1.16-1.41-.72-1-1.06-1.49-.64-1-.94-1.5-.56-1-.77-1.47l-.32-.69-.27-.66c-.17-.42-.3-.83-.41-1.18l-.14-.5-.1-.43A6.7,6.7,0,0,1,8,58.24Z"/>
        <path id="_Path_3" data-name="&lt;Path&gt;" class="cls-3" d="M5,55s.07.26.2.72.34,1.1.61,1.87c.13.39.29.8.45,1.23s.37.88.55,1.36.41.95.64,1.43.46,1,.73,1.44l.38.72.4.7c.14.23.26.46.4.68l.42.65.41.62.42.58.39.55c.13.18.27.34.39.5l.69.87.57.64.5.56-.54-.51L12,69c-.23-.24-.48-.52-.75-.83-.13-.15-.28-.31-.42-.48l-.42-.54-.44-.57c-.15-.2-.28-.41-.43-.62l-.44-.65c-.14-.22-.28-.45-.42-.68l-.42-.7-.39-.72c-.26-.48-.49-1-.72-1.46s-.42-1-.63-1.45-.36-.94-.51-1.38-.29-.86-.4-1.26c-.24-.78-.39-1.45-.49-1.91S5,55,5,55Z"/>
      </g>
      <path id="_Path_4" data-name="&lt;Path&gt;" class="cls-3" d="M33.77,76.67a5.23,5.23,0,1,0-4.11,4.11A5.23,5.23,0,0,0,33.77,76.67Z"/>
      <polygon id="_Path_5" data-name="&lt;Path&gt;" class="cls-3" points="27.12 80.22 22.59 77.34 25.02 79.59 18.86 77.34 24.7 79.85 22.33 80.04 24.61 80.41 17.3 80.99 28.64 80.88 27.12 80.22"/>
      <polygon id="_Path_6" data-name="&lt;Path&gt;" class="cls-3" points="18.23 51.78 15.62 51.7 18.14 52.18 18.01 52.69 17.77 52.79 16.45 53.39 14.99 53.32 9.11 53.03 8.41 52.43 10.04 50.54 17.56 49.8 18.56 50.46 18.23 51.78"/>
      <g id="_Group_2" data-name="&lt;Group&gt;">
        <path id="_Path_7" data-name="&lt;Path&gt;" class="cls-4" d="M9.13,51.59A26.33,26.33,0,0,1,16.65,23s-13.41,12-6,28.73c0,0-3.12-7-.51-13.87,0,0-2.09,6,.56,11.15a12.28,12.28,0,0,1,0-5.34s-.6,4.88,2.79,8.07l-2.62,1Z"/>
      </g>
      <polygon id="_Path_8" data-name="&lt;Path&gt;" class="cls-5" points="18.42 52.23 18.02 52.92 17.77 52.79 15.62 51.7 18.14 52.18 18.42 52.23"/>
      <polygon id="_Path_9" data-name="&lt;Path&gt;" class="cls-3" points="24.86 56.32 24.86 59.28 23.64 60.51 14.99 53.32 14.45 52.87 14.9 52.16 14.15 52.61 15.04 51.59 15.62 51.7 18.14 52.18 18.42 52.23 22.6 53.03 24.78 56.2 24.86 56.32"/>
      <polygon id="_Path_10" data-name="&lt;Path&gt;" class="cls-3" points="27.27 53.54 22.86 58.25 23.05 59.36 23.64 60.51 30.02 58.35 27.27 53.54"/>
      <polygon id="_Path_11" data-name="&lt;Path&gt;" class="cls-3" points="44.78 57.82 46.4 64.16 43 77.67 42 77.67 40.73 67.74 43.56 64.1 42.5 64.66 39.45 60.16 40.39 56.05 44.78 57.82"/>
      <path id="_Path_12" data-name="&lt;Path&gt;" class="cls-3" d="M31.75,48l-5,5.56A11,11,0,0,0,30,58.35l8.73-3.78-2.45,1.58.86-.17-.47.64,2.75,4.47,2.91-1,2.43-2.31-1.58-6.69Z"/>
      <polygon id="_Path_13" data-name="&lt;Path&gt;" class="cls-3" points="44.73 37.58 49.17 38.34 57.18 34.38 59 34.38 59.92 33.71 60.55 33.71 61.59 32.27 59 31.38 56.44 33.12 49.36 34.46 49.58 35.23 49.23 34.45 49.11 35.09 49.03 34.42 45.49 33.12 44.73 37.58"/>
      <path id="_Path_14" data-name="&lt;Path&gt;" class="cls-3" d="M40.1,31.38l-5.63,1.11-5.91,5.65-3.22,1.5-4.78,3.95-2.39.72-1.5,2.89,1.5.39L19,47l2.39-.56,1.39-1.83,7.28-3,4-2a10.29,10.29,0,0,0-1.64,1.28c-.17.31,1.61-.33,1.17-.14a7.27,7.27,0,0,0-1,.56A27,27,0,0,0,32.75,45a17.82,17.82,0,0,1,2.08.83,19.44,19.44,0,0,0-2.25-.47,10.89,10.89,0,0,0,1.53,1.14s-1.06-.69-1.39-.56a20.43,20.43,0,0,0-2.06,2.42s3.65,2.24,3,1.87a6.51,6.51,0,0,0-1.59-.56l2.26,2.08a25.48,25.48,0,0,0,5.11,0,16.16,16.16,0,0,0-1.82.67c.22,0,5.6-1,5.6-1.3s0-3.57,0-3.71a10.6,10.6,0,0,1-.74,1.26,16.36,16.36,0,0,0,1-2c-.3.37,2.37-7.56,3.37-12,0,0-.32.45-.54.86s.17-1.47.17-1.47-2-2-3-2.24S40.1,31.38,40.1,31.38Z"/>
      <path id="_Path_15" data-name="&lt;Path&gt;" class="cls-3" d="M40.35,78.19l.85-1.3,2.08-.33,4.63.51.89.59-1.3,1.15s-5.37.52-5.6.59S40.35,78.19,40.35,78.19Z"/>
      <path id="_Path_16" data-name="&lt;Path&gt;" class="cls-3" d="M40.11,24.41s-1.58,3.39-1.58,5.14S41,34,41,34a13.23,13.23,0,0,0,5.66-7.08S42.24,24.22,40.11,24.41Z"/>
      <path id="_Path_17" data-name="&lt;Path&gt;" class="cls-3" d="M39.21,24.26l-1.13,2.37.46-.43A16.16,16.16,0,0,0,38,28.4c-.19,1.11,2.41-2,3.22-2.26s-1.22-.3-1.11-.3,1.43-.54,1.93,0S40,23.93,39.21,24.26Z"/>
      <polygon id="_Path_18" data-name="&lt;Path&gt;" class="cls-3" points="39.02 30.11 37.54 32.52 39.21 32.78 40.87 31 39.02 30.11"/>
      <path id="_Path_19" data-name="&lt;Path&gt;" class="cls-3" d="M45.65,27.34a12.79,12.79,0,0,1-6.45-3.08s2.3-2,7-2.26a28.33,28.33,0,0,1-3.08,1.93,16.9,16.9,0,0,1,4.52-.33c-1,.26-3.82,1.07-3.82,1.07a6.15,6.15,0,0,1,3.82,1.7,5.26,5.26,0,0,0-2-.59s.56.59,1.48,1.82a12.89,12.89,0,0,0-2.22-1Z"/>
      <text class="cls-6" transform="translate(51.1 54.46)"><tspan class="cls-7">F</tspan><tspan x="5.45" y="0">utbol</tspan><tspan class="cls-8" x="0" y="9">F</tspan><tspan x="5.46" y="9">ormation</tspan><tspan class="cls-9" x="0" y="18">A</tspan><tspan x="6.13" y="18">nalysis</tspan></text>
    </g>
  </g>
</svg>
