<svg xmlns="http://www.w3.org/2000/svg" viewBox="0 0 100 100">
  <defs>
    <style>
      .cls-1 {
        fill: #4db4d7;
      }

      .cls-2, .cls-3, .cls-4 {
        fill: #fff;
      }

      .cls-3 {
        opacity: 0.29;
      }

      .cls-4 {
        font-size: 12px;
        font-family: Roboto-Bold, Roboto;
        font-weight: 700;
      }
    </style>
  </defs>
  <title>mask</title>
  <g id="Layer_2" data-name="Layer 2">
    <g id="Layer_1-2" data-name="Layer 1">
      <rect class="cls-1" width="100" height="100"/>
      <g>
        <g>
          <path class="cls-2" d="M56.69,35.81l-.53-.17-.54-.16q-.54-.16-1.1-.29a21.45,21.45,0,0,0-9-.16c-.75.14-1.48.35-2.19.54l-2.14.58q-4.28,1.16-8.53,2.44l.11.44q4.34-.91,8.66-1.94l2.16-.52c.73-.18,1.42-.35,2.13-.48a22,22,0,0,1,8.59.15c.35.08.7.16,1.05.25l.52.14.53.16,2.13.62q2.13.62,4.27,1.22c1.43.38,2.85.79,4.29,1.15l.13-.43c-1.39-.51-2.79-1-4.19-1.47s-2.8-.94-4.21-1.4Z"/>
          <path class="cls-2" d="M49.92,43.3c2.86,0,5.71.11,8.59.21s5.74.16,8.62.18l0-.5q-4.29-.39-8.59-.67c-1.43-.1-2.87-.18-4.31-.25s-2.88-.09-4.32-.09-2.88,0-4.32.08-2.87.14-4.31.22q-4.3.24-8.6.59l0,.51q4.31,0,8.62-.11C44.2,43.38,47.05,43.27,49.92,43.3Z"/>
          <path class="cls-2" d="M58.42,48.75l-2.16.52c-.73.18-1.42.35-2.13.48a22,22,0,0,1-8.59-.15c-.35-.08-.7-.16-1.05-.25L44,49.19,43.44,49l-2.13-.62q-2.13-.62-4.27-1.22c-1.43-.38-2.85-.79-4.29-1.15l-.13.43c1.39.51,2.79,1,4.19,1.47s2.8.94,4.21,1.4l2.11.69.53.17.54.16q.54.16,1.1.29a21.45,21.45,0,0,0,9,.16c.75-.14,1.48-.35,2.19-.54l2.14-.58q4.28-1.16,8.53-2.44l-.11-.44Q62.73,47.72,58.42,48.75Z"/>
          <path class="cls-2" d="M80,28.44A8,8,0,0,0,79.72,27a3.49,3.49,0,0,0-.7-1.4,1.78,1.78,0,0,0-.76-.53,1.42,1.42,0,0,0-.52-.07,1.77,1.77,0,0,0-.48.1A3.64,3.64,0,0,0,76,26a11.92,11.92,0,0,0-.92,1.07c-.29.36-.56.73-.82,1.11-1,1.5-2,3-3,4.51-.73,1.11-.8,1.23-1.23,1.79h0l-9.93-5.64a20.15,20.15,0,0,0-9.88-2.69h-.58a20.06,20.06,0,0,0-9.32,2.62L30.19,34.5h0c-.39-.53-.36-.53-1.13-1.64l-1.55-2.21c-.53-.73-1-1.47-1.6-2.2a19,19,0,0,0-1.83-2.1,4.67,4.67,0,0,0-1.23-.88,2,2,0,0,0-.89-.18,1.61,1.61,0,0,0-.49.11,1.79,1.79,0,0,0-.42.24,2.26,2.26,0,0,0-.56.66,3.1,3.1,0,0,0-.3.74,6.32,6.32,0,0,0-.2,1.44,15.47,15.47,0,0,0,.19,2.77,35.93,35.93,0,0,0,1.25,5.3,48.26,48.26,0,0,0,1.89,5.09,37.59,37.59,0,0,0,2.51,4.86,17.09,17.09,0,0,0,3.33,4.05,4.11,4.11,0,0,0,.65.44l10.48,5.86a20.06,20.06,0,0,0,9.33,2.62h.61a20.15,20.15,0,0,0,9.85-2.69l8.76-5a15.55,15.55,0,0,0,4.59-3.92q.52-.66,1-1.35a30.76,30.76,0,0,0,2.63-4.82,37,37,0,0,0,1.83-5.14,30.46,30.46,0,0,0,1-5.37A15.87,15.87,0,0,0,80,28.44ZM29.43,48.65h0a11.94,11.94,0,0,1-.87-.85,18.42,18.42,0,0,1-1.61-2,32.43,32.43,0,0,1-2.6-4.59,43.24,43.24,0,0,1-1.95-4.94,32.75,32.75,0,0,1-1.24-5.14A14.53,14.53,0,0,1,21,28.52a5.36,5.36,0,0,1,.17-1.21,1.61,1.61,0,0,1,.51-.87.56.56,0,0,1,.33-.12,1,1,0,0,1,.41.11,3.71,3.71,0,0,1,.92.71,14.5,14.5,0,0,1,1.62,2c.5.72,1,1.47,1.44,2.23s.91,1.53,1.35,2.31c.58,1,1.13,2,1.68,3.07Zm40,1.31-10,5.67a18.84,18.84,0,0,1-9.21,2.51h-.55A18.78,18.78,0,0,1,41,55.68L30.78,50V35.71L41,30a18.78,18.78,0,0,1,8.7-2.45h.55A18.84,18.84,0,0,1,59.43,30l10,5.67Zm9.54-18.83A31.34,31.34,0,0,1,76,41.26a27,27,0,0,1-2.7,4.51,18.09,18.09,0,0,1-2.59,2.83V37q.9-1.73,1.82-3.44c.42-.79.86-1.58,1.29-2.36s.89-1.55,1.36-2.29a13.94,13.94,0,0,1,1.53-2.09,2.72,2.72,0,0,1,.87-.67.5.5,0,0,1,.33,0,.71.71,0,0,1,.32.23,2.53,2.53,0,0,1,.49,1A7,7,0,0,1,79,28.53,14.92,14.92,0,0,1,78.94,31.13Z"/>
        </g>
        <path class="cls-3" d="M59.43,30a18.84,18.84,0,0,0-9.21-2.51h-.55A18.78,18.78,0,0,0,41,30L30.78,35.71V50L41,55.68a18.78,18.78,0,0,0,8.7,2.45h.55a18.84,18.84,0,0,0,9.21-2.51l10-5.67V35.71Z"/>
        <ellipse class="cls-3" cx="49.92" cy="61.51" rx="10.81" ry="0.78"/>
      </g>
      <text class="cls-4" transform="translate(22.87 76.79)">VitalMask</text>
    </g>
  </g>
</svg>
