<svg xmlns="http://www.w3.org/2000/svg" viewBox="0 0 100 100">
  <defs>
    <style>
      .cls-1 {
        fill: #48bf91;
      }

      .cls-2, .cls-3 {
        fill: #fff;
      }

      .cls-3 {
        font-size: 10px;
        font-family: Roboto-Bold, Roboto;
        font-weight: 700;
      }
    </style>
  </defs>
  <title>mri</title>
  <g id="Layer_2" data-name="Layer 2">
    <g id="Layer_1-2" data-name="Layer 1">
      <rect class="cls-1" width="100" height="100"/>
      <g>
        <path class="cls-2" d="M18.87,48.1a6.69,6.69,0,0,1,1.07-2.57.93.93,0,0,1,1.25-.19.82.82,0,0,1,.21,1.17,6,6,0,0,0-.76,3.88c.27,1.52.73,2.74,3.25,3.2,1.6.29,1.76,1.52,1.87,2.41a5,5,0,0,0,1.81,3.56,10.56,10.56,0,0,0,2.18,1.34c.4.21.83.42,1.24.67a13.23,13.23,0,0,0,1.1-5,8,8,0,0,0-1.69-4.66l-.23-.29.07-.36a8.63,8.63,0,0,0,.17-1.91,3.66,3.66,0,0,1-1.13.17,5,5,0,0,1-3.92-1.74,6.23,6.23,0,0,1-1.11-5c.07-1.07.14-1.92.27-3.13a24.83,24.83,0,0,0,.26-5c-.58-2.55-1.89-2.51-2.39-2.49a.84.84,0,1,1-.05-1.68c1.23,0,3.42.4,4.19,3.81a23.23,23.23,0,0,1-.23,5.55c-.13,1.2-.24,2.08-.26,3s-.18,2.76.74,3.84a3.48,3.48,0,0,0,2.62,1.1,2.52,2.52,0,0,0,1.89-1.27,4.84,4.84,0,0,0-.72-5.12l-.44-.53.45-.52A4.93,4.93,0,0,0,31.84,37a4.87,4.87,0,0,0-1-2.85l-.4-.51.42-.5A5,5,0,0,0,32,29.81a4.74,4.74,0,0,0-5-4.9,4.39,4.39,0,0,0-4.26,2.78c-2-.53-4.32,1.2-4.84,2.92s-.21,3.91,2,6.6A8.44,8.44,0,0,0,21,38.28a.8.8,0,0,1,.07,1.18.93.93,0,0,1-1.26.07,10.14,10.14,0,0,1-1.28-1.28,11,11,0,0,1-2.39-5.57c-3.4,2.32-3.84,6.6-2.29,9C11.89,44.63,15,48.29,18.87,48.1Z"/>
        <path class="cls-2" d="M28.9,62.37a9.32,9.32,0,0,1-2.55-1.59A6.52,6.52,0,0,1,24,56.21c-.12-.91-.15-.92-.44-1a6.46,6.46,0,0,1-3.15-1.33,6.74,6.74,0,0,1-2.49.57,8,8,0,0,1-4.17-1.07.81.81,0,0,1-.24-1.16A.93.93,0,0,1,14.74,52a5.75,5.75,0,0,0,4.61.51,6.09,6.09,0,0,1-.65-2.71c-3.75.1-7.23-2.12-7.38-5.83-4.85,7.13.93,13.81,7.52,15.7a4.42,4.42,0,0,1,3.07,4.14,3.94,3.94,0,0,1-.24,1.35,10.19,10.19,0,0,1,2.35.75,8.4,8.4,0,0,1,0-2.4.89.89,0,0,1,1-.71.85.85,0,0,1,.75.95s-.41,2.69.77,3.94a5.77,5.77,0,0,1,1.43,3,.85.85,0,0,1-.76.95h-.1a.87.87,0,0,1-.91-.72c-.53-3.58-4.2-4.08-5.5-4.21A6.67,6.67,0,0,1,18,68.29a.92.92,0,0,1-.27,0,.89.89,0,0,1-.87-.56.83.83,0,0,1,.55-1.07c1.78-.59,2.75-1.62,2.74-2.88a2.82,2.82,0,0,0-1.85-2.56,14.24,14.24,0,0,1-8-5.53c-2.16,5.64,2.52,8,5.5,7.68a.89.89,0,0,1,1,.73.86.86,0,0,1-.78.94q-.36,0-.71.05a7.83,7.83,0,0,1-2.73-.39c-.7,3.11,2.48,8.31,8.3,6.17C21.55,75,27.57,76.88,31,73S32.08,63.71,28.9,62.37Z"/>
        <path class="cls-2" d="M33.2,36.55a4.48,4.48,0,0,0,.07.62,12.78,12.78,0,0,1,2-2.1l.59-.47c1.88-1.49,2.83-2.24,2.66-4.75a.87.87,0,0,1,1.72-.11c.22,3.32-1.25,4.48-3.27,6.09l-.58.46A11.09,11.09,0,0,0,34,39.08v0l-.18.37a4.67,4.67,0,0,0,.08,4.32l.17.32-.14.34a6.51,6.51,0,0,0,0,5,7.56,7.56,0,0,1,2.46-2,7.78,7.78,0,0,1,4.29-.94,9.5,9.5,0,0,1,6.81-3.21h.07c1.53,0,4.53.39,5.86,2.18.58-3.24-.58-5.91-4-6.6a5.65,5.65,0,0,0-2.6-6,7.21,7.21,0,0,1-2.79,3.69,6.75,6.75,0,0,1,1.39,3.58.84.84,0,0,1-.84.82h0a.84.84,0,0,1-.87-.8,5.21,5.21,0,0,0-1.07-2.66,7.6,7.6,0,0,0-3.52,4.42.86.86,0,0,1-.8.57.88.88,0,0,1-.28,0,.8.8,0,0,1-.57-1A9.5,9.5,0,0,1,42,36a6.53,6.53,0,0,0,3.24-3.71l.13-.68a5.35,5.35,0,0,0,.1-1.21,6,6,0,0,0-12.06.38A5.33,5.33,0,0,0,34,33l.2.4-.25.38A4.76,4.76,0,0,0,33.2,36.55Z"/>
        <path class="cls-2" d="M53.93,56.59a17.28,17.28,0,0,1-1.6,1.67.9.9,0,0,1-1.22,0,.78.78,0,0,1,0-1.15,15.16,15.16,0,0,0,1.8-2v0l.31-.48a6.35,6.35,0,0,0-1.11-8.23l-.18-.16-.06-.06a6.71,6.71,0,0,0-4.33-1.26,7.78,7.78,0,0,0-5.85,3l-.39.49-.61-.21a5.28,5.28,0,0,0-3.48.69,5.53,5.53,0,0,0-2.81,3.48c-.78,2.88,1.44,4.56,2.23,5.12a.82.82,0,0,1,.33,1.1.87.87,0,0,1-.73.42.89.89,0,0,1-.44-.1,6.5,6.5,0,0,1-2.25-2.07,5.76,5.76,0,0,0-.29,2,5.84,5.84,0,0,0,1.35,3.54l.25.3a19.38,19.38,0,0,0,2.53,2.2c.38.29.71.55,1,.77a4.51,4.51,0,0,1,1.35,5.62.88.88,0,0,1-.74.43.9.9,0,0,1-.43-.09.78.78,0,0,1-.36-1.09,2.92,2.92,0,0,0-1-3.67c-.24-.2-.55-.44-.9-.71-.6-.46-1.32-1-2-1.63a3.95,3.95,0,0,0,.43,2.5l.2.38-.22.37A4.76,4.76,0,0,0,34,70.29a5.16,5.16,0,0,0,5.47,4.82,5.32,5.32,0,0,0,4.69-3l.15-.31.34-.12A4.63,4.63,0,0,0,47,69.95a5,5,0,0,1-2.06-.69,4.25,4.25,0,0,1-2.06-3.19,8.22,8.22,0,0,1,.65-3.59,7.94,7.94,0,0,1-2.19.39,5,5,0,0,1-1.88-.25A.79.79,0,0,1,39,61.56a.89.89,0,0,1,1.13-.45c1,.37,4,0,5.06-1.81s1.36-2.91,1-3.87a2.26,2.26,0,0,0-1.69-1.38,3.68,3.68,0,0,0-3.1.92.9.9,0,0,1-1.22,0,.78.78,0,0,1,0-1.15A5.61,5.61,0,0,1,44,52.39a6.59,6.59,0,0,0,0-3,.81.81,0,0,1,.64-1,.87.87,0,0,1,1,.59,8.18,8.18,0,0,1,0,3.74,3.9,3.9,0,0,1,2,2.07c.83,2-.16,3.82-1.86,6.63,0,0-1.47,2.59-1.28,4.44a2.59,2.59,0,0,0,1.28,2C50.63,70.65,56.27,62.92,53.93,56.59Z"/>
      </g>
      <text class="cls-3" transform="translate(59 39.42)">Brain<tspan x="0" y="9">Cancer</tspan><tspan x="0" y="18">Neural</tspan><tspan x="0" y="27">Net</tspan></text>
    </g>
  </g>
</svg>
