<svg xmlns="http://www.w3.org/2000/svg" viewBox="0 0 100 100">
  <defs>
    <style>
      .cls-1 {
        fill: #48bf91;
      }

      .cls-2 {
        font-size: 12px;
        font-family: MyriadPro-Bold, Myriad Pro;
        font-weight: 700;
      }

      .cls-2, .cls-6 {
        fill: #fff;
      }

      .cls-3 {
        letter-spacing: -0.01em;
      }

      .cls-4 {
        fill: #8e8250;
      }

      .cls-5 {
        fill: none;
      }
    </style>
  </defs>
  <title>oCaml</title>
  <g id="Layer_2" data-name="Layer 2">
    <g id="Layer_1-2" data-name="Layer 1">
      <rect class="cls-1" width="100" height="100"/>
      <text class="cls-2" transform="translate(12.5 68.04)">o<tspan class="cls-3" x="6.92" y="0">C</tspan><tspan x="13.94" y="0">aml </tspan><tspan x="0" y="14.4">DBMS</tspan></text>
      <g>
        <path class="cls-4" d="M100,56.4V50.21A23,23,0,0,0,100,56.4Z"/>
        <path class="cls-4" d="M100,91.12V90C99.5,90.75,99.46,91,100,91.12Z"/>
      </g>
      <g>
        <path class="cls-5" d="M94.74,52.53C91.41,53.46,87.6,54.42,84,54l-.2.61a5.4,5.4,0,0,0-.6,2.49c-.3,5.32,4.29,10.2,4.92,15.31.24,2.75-.53,5.61-.39,8.44.19,2.67.54,5.13,1,7.7.06.36.13.73.19,1.09.34,1.75.74,2-1.07,1.95-1.52.06-3.24.87-3.31-.55a6,6,0,0,1,.4-2A6.34,6.34,0,0,0,85.34,87,32,32,0,0,0,85,82.44C83.91,76,81.3,70.35,79.57,64a14.31,14.31,0,0,0-3.82-6.11l-1,.72a21.85,21.85,0,0,0-4,5.07,42.64,42.64,0,0,0-2.62,6.42c-.88,2.95-1.09,5.15-3.39,7.05C62.67,79,61.81,81.64,61,84.09c-.36.95-.66,2.78-1.13,4.45a6,6,0,0,1-1.72,3.26c-.65.44-3.49.58-3.74.05s.44-1.74,1-2.58l.46-.72c1.11-2.12,2.52-4.21,3.43-6.44.8-2,.5-4.29,1.11-6.46s1.81-4.17,2.8-6.2a43,43,0,0,0,2-4.86c.58-2.09,2-6.44,2.46-7.53a4.3,4.3,0,0,0-.3-4.5,23.67,23.67,0,0,1-2-3.37l-.66.13a32.28,32.28,0,0,1-16.48-3.07,48.58,48.58,0,0,1-4.1-2.73,25,25,0,0,1-2.62-2.33,19.69,19.69,0,0,1-3.76-4.67A17.43,17.43,0,0,0,32.12,30a1.71,1.71,0,0,1-.67-1.14c-.29-.52-.47-1-1.06-1.25a7.58,7.58,0,0,0-1.59,0c-.49,0-1-.13-1.5-.18a4.85,4.85,0,0,1-2-.75c-.43-.27-.8-.76-1.23-1s-1.25,0-1.85-.06-3.52,0-3.46-1.08l.11,0c-.7-.08-1.17-.45-.73-1.42.24-.51.67-.69,1-1.08a2.08,2.08,0,0,0,.3-.8,2.28,2.28,0,0,1,1.22-1.36A9.09,9.09,0,0,1,24,18.69a14.56,14.56,0,0,1,3.38.28c2.41.19,4.54-1.13,6.94-.9l0,.62a3,3,0,0,1,.36-1c.23-.43,1.65-1.85,2.15-1.12a8.82,8.82,0,0,1,0,2,7.78,7.78,0,0,1,1.43.63l-1.3-.81c.22-.32,1.87-1,2.26-.7s-.07,1.51-.33,1.9l-.21-.13c3.59,2.66,4.24,8.38,7.07,11.72a13.33,13.33,0,0,0,7.57,4.88c3,.58,5.43-.32,8.25-.74,1.18-.18,3.32-2.24,3.32-2.24,2.67-2.68,6.09-4.58,8.39-7.59,1.84-2.35,3.2-5,5.15-7.49,2.38-2.8,4.74-4.2,8.47-3.14,1.17.41,2.23,1,3.3,1.42a11.11,11.11,0,0,0,7.48-.1c.85-.25,1.62-.5,2.35-.73V0H0V100H100V50.81C98.11,51.47,96.3,52.11,94.74,52.53Z"/>
        <path class="cls-6" d="M90.17,16.36c-1.07-.41-2.13-1-3.3-1.42-3.74-1.06-6.09.34-8.47,3.14-1.95,2.44-3.31,5.14-5.15,7.49-2.3,3-5.71,4.92-8.39,7.59,0,0-2.14,2.06-3.32,2.24-2.82.42-5.27,1.32-8.25.74a13.33,13.33,0,0,1-7.57-4.88c-2.83-3.34-3.48-9.06-7.07-11.72l.21.13c.26-.39.86-1.55.33-1.9s-2,.38-2.26.7l1.3.81a7.78,7.78,0,0,0-1.43-.63,8.82,8.82,0,0,0,0-2c-.5-.73-1.92.69-2.15,1.12a3,3,0,0,0-.36,1l0-.62c-2.4-.23-4.53,1.09-6.94.9A14.56,14.56,0,0,0,24,18.69a9.09,9.09,0,0,0-3.37,1.16,2.28,2.28,0,0,0-1.22,1.36,2.08,2.08,0,0,1-.3.8c-.3.39-.73.57-1,1.08-.44,1,0,1.35.73,1.42l-.11,0c-.06,1.09,2.81,1.1,3.46,1.08s1.31-.22,1.85.06.8.72,1.23,1a4.85,4.85,0,0,0,2,.75c.49,0,1,.13,1.5.18a7.58,7.58,0,0,1,1.59,0c.59.21.76.73,1.06,1.25A1.71,1.71,0,0,0,32.12,30a17.43,17.43,0,0,1,5.58,6.48,19.69,19.69,0,0,0,3.76,4.67,25,25,0,0,0,2.62,2.33,48.58,48.58,0,0,0,4.1,2.73,32.28,32.28,0,0,0,16.48,3.07l.66-.13a23.67,23.67,0,0,0,2,3.37,4.3,4.3,0,0,1,.3,4.5c-.44,1.09-1.88,5.44-2.46,7.53a43,43,0,0,1-2,4.86c-1,2-2.3,4-2.8,6.2s-.31,4.41-1.11,6.46c-.92,2.24-2.33,4.33-3.43,6.44l-.46.72c-.52.84-1.2,2-1,2.58s3.1.39,3.74-.05a6,6,0,0,0,1.72-3.26c.47-1.67.77-3.5,1.13-4.45.83-2.45,1.69-5.09,3.78-6.91,2.3-1.91,2.51-4.11,3.39-7.05a42.64,42.64,0,0,1,2.62-6.42,21.85,21.85,0,0,1,4-5.07l1-.72A14.31,14.31,0,0,1,79.57,64C81.3,70.35,83.91,76,85,82.44A32,32,0,0,1,85.34,87a6.34,6.34,0,0,1-.41,2.07,6,6,0,0,0-.4,2c.07,1.42,1.78.61,3.31.55,1.81.07,1.41-.2,1.07-1.95-.06-.37-.13-.73-.19-1.09-.44-2.57-.79-5-1-7.7-.14-2.84.64-5.7.39-8.44-.63-5.11-5.22-10-4.92-15.31a5.4,5.4,0,0,1,.6-2.49L84,54c3.6.42,7.41-.54,10.74-1.47,1.56-.42,3.37-1.06,5.26-1.72V15.52c-.73.23-1.5.48-2.35.73A11.11,11.11,0,0,1,90.17,16.36Z"/>
      </g>
    </g>
  </g>
</svg>
