<svg xmlns="http://www.w3.org/2000/svg" viewBox="0 0 100 100">
  <defs>
    <style>
      .cls-1 {
        fill: #4db4d7;
      }

      .cls-2, .cls-4 {
        fill: #fff;
      }

      .cls-3 {
        fill: none;
      }

      .cls-4 {
        font-size: 12px;
        font-family: Roboto-BoldCondensed, Roboto;
        font-weight: 700;
      }
    </style>
  </defs>
  <title>riscv</title>
  <g id="Layer_2" data-name="Layer 2">
    <g id="Layer_1-2" data-name="Layer 1">
      <rect class="cls-1" width="100" height="100"/>
      <g>
        <g id="mouse_computer" data-name="mouse computer">
          <path class="cls-2" d="M56.18,50H82.52a1,1,0,0,1,0,2.06H77.23a1,1,0,0,0-1,1V73h.45V53.1a.58.58,0,0,1,.58-.58h5.29a1.48,1.48,0,0,0,0-3H56.18"/>
          <g>
            <path class="cls-2" d="M76.94,72.65a2,2,0,0,1,2,2v4.9a2,2,0,0,1-2,2h-.54v-9Z"/>
            <path class="cls-2" d="M75.85,72.65h.55v9h-.55a2,2,0,0,1-2-2v-4.9A2,2,0,0,1,75.85,72.65Z"/>
          </g>
          <g>
            <path class="cls-1" d="M77.07,74.82v.44a.68.68,0,0,1-.68.68v-1.8A.68.68,0,0,1,77.07,74.82Z"/>
            <path class="cls-1" d="M76.39,74.14h0v1.8h0a.68.68,0,0,1-.68-.68v-.44A.68.68,0,0,1,76.39,74.14Z"/>
          </g>
        </g>
        <g id="screen">
          <g>
            <path class="cls-2" d="M45.15,43.74l-1.32,5.41H56.17l-1.32-5.41Z"/>
            <path class="cls-2" d="M49.93,49.15h6.25l-1.32-5.41H49.93Z"/>
            <path class="cls-2" d="M56.94,49.06H43.06a.7.7,0,0,0-.64.75v.28H57.58v-.28A.7.7,0,0,0,56.94,49.06Z"/>
            <path class="cls-2" d="M29.14,41.64v3a1,1,0,0,0,1,1H69.82a1,1,0,0,0,1-1v-3Z"/>
            <path class="cls-2" d="M68.86,17.36V39.64H31.14V17.36H68.86m1-2H30.18a1,1,0,0,0-1,1V41.64H70.86V16.39a1,1,0,0,0-1-1Z"/>
            <rect class="cls-3" x="30.85" y="16.98" width="38.31" height="22.93"/>
          </g>
        </g>
        <g id="keyboard">
          <path class="cls-2" d="M69.48,72.12a.49.49,0,0,0-.51-.48H30.75a.49.49,0,0,0-.51.48v14a.49.49,0,0,0,.51.48H69a.49.49,0,0,0,.51-.48Z"/>
          <g>
            <rect class="cls-1" x="31.22" y="72.88" width="2.14" height="2.14" rx="0.12" ry="0.12"/>
            <rect class="cls-1" x="35.14" y="75.48" width="2.14" height="2.14" rx="0.12" ry="0.12"/>
            <rect class="cls-1" x="35.75" y="78.08" width="2.14" height="2.13" rx="0.12" ry="0.12"/>
            <rect class="cls-1" x="34.48" y="80.68" width="2.13" height="2.14" rx="0.12" ry="0.12"/>
            <rect class="cls-1" x="31.22" y="83.28" width="2.14" height="2.46" rx="0.12" ry="0.12"/>
            <rect class="cls-1" x="33.82" y="83.28" width="2.14" height="2.46" rx="0.12" ry="0.12"/>
            <rect class="cls-1" x="36.41" y="83.28" width="2.14" height="2.46" rx="0.12" ry="0.12"/>
            <rect class="cls-1" x="58.57" y="83.28" width="2.14" height="2.46" rx="0.12" ry="0.12"/>
            <rect class="cls-1" x="61.17" y="84.51" width="2.14" height="1.23" rx="0.12" ry="0.12"/>
            <rect class="cls-1" x="66.37" y="84.51" width="2.14" height="1.23" rx="0.12" ry="0.12"/>
            <rect class="cls-1" x="39.01" y="83.28" width="2.81" height="2.46" rx="0.12" ry="0.12"/>
            <rect class="cls-1" x="55.29" y="83.28" width="2.81" height="2.46" rx="0.12" ry="0.12"/>
            <rect class="cls-1" x="42.28" y="83.28" width="12.54" height="2.46" rx="0.12" ry="0.12"/>
            <rect class="cls-1" x="37.08" y="80.68" width="2.13" height="2.14" rx="0.12" ry="0.12"/>
            <rect class="cls-1" x="39.68" y="80.68" width="2.13" height="2.14" rx="0.12" ry="0.12"/>
            <rect class="cls-1" x="42.28" y="80.68" width="2.14" height="2.14" rx="0.12" ry="0.12"/>
            <rect class="cls-1" x="44.88" y="80.68" width="2.14" height="2.14" rx="0.12" ry="0.12"/>
            <rect class="cls-1" x="47.49" y="80.68" width="2.13" height="2.14" rx="0.12" ry="0.12"/>
            <rect class="cls-1" x="50.09" y="80.68" width="2.14" height="2.14" rx="0.12" ry="0.12"/>
            <rect class="cls-1" x="52.69" y="80.68" width="2.14" height="2.14" rx="0.12" ry="0.12"/>
            <rect class="cls-1" x="55.29" y="80.68" width="2.14" height="2.14" rx="0.12" ry="0.12"/>
            <rect class="cls-1" x="57.89" y="80.68" width="2.14" height="2.14" rx="0.12" ry="0.12"/>
            <rect class="cls-1" x="60.49" y="80.68" width="2.14" height="2.14" rx="0.12" ry="0.12"/>
            <rect class="cls-1" x="63.09" y="80.68" width="5.39" height="2.14" rx="0.12" ry="0.12"/>
            <rect class="cls-1" x="38.36" y="78.08" width="2.13" height="2.13" rx="0.12" ry="0.12"/>
            <rect class="cls-1" x="40.96" y="78.08" width="2.13" height="2.13" rx="0.12" ry="0.12"/>
            <rect class="cls-1" x="43.56" y="78.08" width="2.13" height="2.13" rx="0.12" ry="0.12"/>
            <rect class="cls-1" x="46.16" y="78.08" width="2.14" height="2.13" rx="0.12" ry="0.12"/>
            <rect class="cls-1" x="48.76" y="78.08" width="2.14" height="2.13" rx="0.12" ry="0.12"/>
            <rect class="cls-1" x="51.36" y="78.08" width="2.14" height="2.13" rx="0.12" ry="0.12"/>
            <rect class="cls-1" x="53.96" y="78.08" width="2.13" height="2.13" rx="0.12" ry="0.12"/>
            <rect class="cls-1" x="56.56" y="78.08" width="2.14" height="2.13" rx="0.12" ry="0.12"/>
            <rect class="cls-1" x="59.16" y="78.08" width="2.14" height="2.13" rx="0.12" ry="0.12"/>
            <rect class="cls-1" x="61.76" y="78.08" width="2.14" height="2.13" rx="0.12" ry="0.12"/>
            <rect class="cls-1" x="64.36" y="78.08" width="2.13" height="2.13" rx="0.12" ry="0.12"/>
            <rect class="cls-1" x="37.74" y="75.48" width="2.14" height="2.14" rx="0.12" ry="0.12"/>
            <rect class="cls-1" x="40.34" y="75.48" width="2.14" height="2.14" rx="0.12" ry="0.12"/>
            <rect class="cls-1" x="42.94" y="75.48" width="2.13" height="2.14" rx="0.12" ry="0.12"/>
            <rect class="cls-1" x="45.54" y="75.48" width="2.14" height="2.14" rx="0.12" ry="0.12"/>
            <rect class="cls-1" x="48.14" y="75.48" width="2.14" height="2.14" rx="0.12" ry="0.12"/>
            <rect class="cls-1" x="50.74" y="75.48" width="2.14" height="2.14" rx="0.12" ry="0.12"/>
            <rect class="cls-1" x="53.34" y="75.48" width="2.13" height="2.14" rx="0.12" ry="0.12"/>
            <rect class="cls-1" x="55.94" y="75.48" width="2.14" height="2.14" rx="0.12" ry="0.12"/>
            <rect class="cls-1" x="58.55" y="75.48" width="2.13" height="2.14" rx="0.12" ry="0.12"/>
            <rect class="cls-1" x="61.15" y="75.48" width="2.14" height="2.14" rx="0.12" ry="0.12"/>
            <rect class="cls-1" x="63.75" y="75.48" width="2.14" height="2.14" rx="0.12" ry="0.12"/>
            <rect class="cls-1" x="31.22" y="75.48" width="3.45" height="2.14" rx="0.12" ry="0.12"/>
            <rect class="cls-1" x="65.03" y="72.88" width="3.45" height="2.14" rx="0.12" ry="0.12"/>
            <rect class="cls-1" x="31.22" y="78.08" width="4.07" height="2.13" rx="0.12" ry="0.12"/>
            <rect class="cls-1" x="31.22" y="80.68" width="2.79" height="2.14" rx="0.12" ry="0.12"/>
            <rect class="cls-1" x="33.82" y="72.88" width="2.14" height="2.14" rx="0.12" ry="0.12"/>
            <rect class="cls-1" x="36.43" y="72.88" width="2.13" height="2.14" rx="0.12" ry="0.12"/>
            <rect class="cls-1" x="39.03" y="72.88" width="2.14" height="2.14" rx="0.12" ry="0.12"/>
            <rect class="cls-1" x="41.63" y="72.88" width="2.14" height="2.14" rx="0.12" ry="0.12"/>
            <rect class="cls-1" x="44.23" y="72.88" width="2.13" height="2.14" rx="0.12" ry="0.12"/>
            <rect class="cls-1" x="46.83" y="72.88" width="2.14" height="2.14" rx="0.12" ry="0.12"/>
            <rect class="cls-1" x="49.43" y="72.88" width="2.13" height="2.14" rx="0.12" ry="0.12"/>
            <rect class="cls-1" x="52.03" y="72.88" width="2.14" height="2.14" rx="0.12" ry="0.12"/>
            <rect class="cls-1" x="54.63" y="72.88" width="2.13" height="2.14" rx="0.12" ry="0.12"/>
            <rect class="cls-1" x="57.23" y="72.88" width="2.14" height="2.14" rx="0.12" ry="0.12"/>
            <rect class="cls-1" x="59.83" y="72.88" width="2.14" height="2.14" rx="0.12" ry="0.12"/>
            <rect class="cls-1" x="62.43" y="72.88" width="2.13" height="2.14" rx="0.12" ry="0.12"/>
            <g>
              <path class="cls-1" d="M63.77,84.58v1a.12.12,0,0,0,0,.09.12.12,0,0,0,.09,0h1.89a.12.12,0,0,0,.09,0,.12.12,0,0,0,0-.09v-1Z"/>
              <path class="cls-1" d="M65.9,84.44v-1a.12.12,0,0,0,0-.09.12.12,0,0,0-.09,0H63.89a.13.13,0,0,0-.09,0,.12.12,0,0,0,0,.09v1Z"/>
            </g>
            <path class="cls-1" d="M66.47,75.48a.12.12,0,0,0-.12.12v1.89a.12.12,0,0,0,.12.12H67v2.48a.12.12,0,0,0,0,.09.12.12,0,0,0,.09,0h1.27a.12.12,0,0,0,.09,0,.12.12,0,0,0,0-.09V75.6a.12.12,0,0,0-.12-.12Z"/>
          </g>
        </g>
      </g>
      <text class="cls-4" transform="translate(33.49 65.24)">RISC-V</text>
    </g>
  </g>
</svg>
